<?xml version="1.0" encoding="UTF-8"?>
<svg version="1.1" xmlns="http://www.w3.org/2000/svg" width="500" height="500">
<path d="M0 0 C0.69625488 0.31308105 1.39250977 0.62616211 2.10986328 0.94873047 C17.70992072 8.0753347 32.15556685 17.63981246 45 29 C45.50837402 29.44811035 46.01674805 29.8962207 46.54052734 30.35791016 C64.05080267 45.88232168 78.70292386 63.45501033 90 84 C90.50974365 84.9266748 90.50974365 84.9266748 91.02978516 85.87207031 C115.20338611 130.5198211 122.23498248 184.88604704 108.16308594 233.91601562 C91.79276587 287.90508817 57.08377079 331.84871081 7.21533203 358.859375 C-39.45258933 382.88764573 -95.20092696 387.74026767 -145.27954102 372.046875 C-194.52820742 355.72997556 -236.80425486 322.04964853 -261.02978516 275.84667969 C-261.94261916 274.10921708 -262.88255779 272.38607204 -263.82421875 270.6640625 C-272.6764361 253.91447372 -278.51276816 235.58899103 -282 217 C-282.18618896 216.01797607 -282.37237793 215.03595215 -282.56420898 214.02416992 C-284.22106666 204.08523399 -284.33878537 194.24395421 -284.31567383 184.1887207 C-284.31252417 181.33440528 -284.336022 178.48114059 -284.36132812 175.62695312 C-284.41419897 160.34373302 -282.8677101 145.40227861 -278.8125 130.625 C-278.6060083 129.86082764 -278.3995166 129.09665527 -278.18676758 128.30932617 C-273.8500629 112.88525353 -267.70622341 98.0363355 -260 84 C-259.66419922 83.38495605 -259.32839844 82.76991211 -258.98242188 82.13623047 C-250.12613114 66.14197106 -238.67478217 52.10666363 -226 39 C-225.36707031 38.32710937 -224.73414063 37.65421875 -224.08203125 36.9609375 C-166.70708863 -22.73080803 -73.17302261 -32.99898541 0 0 Z " fill="#D7D7D7" transform="translate(335,69)"/>
<path d="M0 0 C1.23339111 0.00410889 2.46678223 0.00821777 3.73754883 0.01245117 C7.8877849 0.03626043 12.037492 0.07680184 16.1875 0.125 C16.97958862 0.13360046 17.77167725 0.14220093 18.58776855 0.15106201 C23.67877226 0.20860511 28.76891191 0.28748245 33.85922241 0.38946533 C35.5163895 0.42110623 37.17364713 0.44835677 38.83096313 0.47088623 C47.97109092 0.60217819 56.48086542 1.02550385 65.1875 4.125 C66.280625 4.50140625 67.37375 4.8778125 68.5 5.265625 C75.58244371 8.18919188 81.92414971 11.70968768 88.1875 16.125 C88.79980469 16.55039063 89.41210938 16.97578125 90.04296875 17.4140625 C99.83044407 24.99296263 107.61410971 36.80181505 112.1875 48.125 C112.59871094 49.09695312 113.00992188 50.06890625 113.43359375 51.0703125 C118.91503916 66.50940096 118.66155314 87.05545258 112.1875 102.125 C111.91905273 102.76050781 111.65060547 103.39601563 111.37402344 104.05078125 C102.22767879 125.24031946 86.80409347 138.53322575 65.58203125 147.1875 C58.06872239 149.87729044 50.47795587 150.27606321 42.56835938 150.23852539 C41.7347715 150.23864593 40.90118362 150.23876646 40.04233551 150.23889065 C37.37194553 150.23815048 34.70162732 150.23056354 32.03125 150.22265625 C30.37141961 150.22118405 28.71158876 150.22016505 27.05175781 150.21960449 C20.93033141 150.21438384 14.80891498 150.20042258 8.6875 150.1875 C-5.0075 150.166875 -18.7025 150.14625 -32.8125 150.125 C-32.8125 100.955 -32.8125 51.785 -32.8125 1.125 C-10.58625598 -0.04480232 -10.58625598 -0.04480232 0 0 Z " fill="#5C6ABF" transform="translate(260.8125,163.875)"/>
<path d="M0 0 C1.05202606 -0.01007584 1.05202606 -0.01007584 2.12530518 -0.02035522 C4.43997316 -0.03932571 6.75435094 -0.04325912 9.0690918 -0.04541016 C10.68328469 -0.05183959 12.29747641 -0.05856806 13.91166687 -0.06558228 C17.29514262 -0.07755325 20.67851629 -0.08126337 24.06201172 -0.08007812 C28.38630777 -0.07987513 32.70994514 -0.10715688 37.03408527 -0.14162254 C40.36879957 -0.16392142 43.70335623 -0.16791473 47.03813744 -0.16685867 C48.63166762 -0.16921092 50.22520239 -0.17801323 51.81865883 -0.19352341 C54.05404617 -0.21324173 56.2880248 -0.20732365 58.5234375 -0.1953125 C60.42727959 -0.19958755 60.42727959 -0.19958755 62.36958313 -0.20394897 C67.4290295 0.49365776 71.07564956 2.27497212 74.63301659 6.08851242 C76.27896707 8.8284762 76.33544277 10.5564705 76.3434906 13.74240112 C76.35339523 14.84989716 76.36329987 15.95739319 76.37350464 17.09844971 C76.36900299 18.30893982 76.36450134 19.51942993 76.35986328 20.76660156 C76.36672653 22.04501923 76.37358978 23.32343689 76.38066101 24.64059448 C76.39860596 28.14485365 76.39742136 31.64886258 76.39171863 35.1531539 C76.38862797 38.08052406 76.394718 41.00784608 76.40075737 43.93520939 C76.41480603 50.84324023 76.41323918 57.75114741 76.40185547 64.65917969 C76.39037989 71.78020068 76.40443941 78.90084481 76.43125194 86.02181613 C76.45342423 92.14001358 76.46004273 98.25809287 76.45417553 104.37632763 C76.45080763 108.02849227 76.45320934 111.68041546 76.47042656 115.33254623 C76.48879676 119.40716065 76.47469304 123.48104447 76.45751953 127.55566406 C76.4671875 128.76210571 76.47685547 129.96854736 76.48681641 131.21154785 C76.43097959 137.53177178 76.26919305 141.51711137 71.95581055 146.29052734 C66.89758867 150.88891087 63.68453089 149.29052734 55.95581055 149.29052734 C55.95581055 124.87052734 55.95581055 100.45052734 55.95581055 75.29052734 C38.79581055 75.29052734 21.63581055 75.29052734 3.95581055 75.29052734 C3.95581055 99.71052734 3.95581055 124.13052734 3.95581055 149.29052734 C-8.71986513 149.29052734 -8.71986513 149.29052734 -13.04418945 145.29052734 C-15.618852 141.66260224 -16.42125277 139.19334165 -16.43859863 134.76309204 C-16.45562332 133.11457497 -16.45562332 133.11457497 -16.47299194 131.43275452 C-16.47006134 130.23678146 -16.46713074 129.04080841 -16.46411133 127.80859375 C-16.47258087 126.54138992 -16.48105042 125.2741861 -16.48977661 123.96858215 C-16.51196436 120.49945177 -16.51492466 117.03055911 -16.5130291 113.56136751 C-16.51290926 110.66137701 -16.52147908 107.76143662 -16.52980661 104.86146009 C-16.54903126 98.0171437 -16.55192815 91.17294927 -16.54516602 84.32861328 C-16.53852741 77.27739223 -16.56138391 70.22669458 -16.59847975 63.17557967 C-16.62921082 57.11339328 -16.64053307 51.05137495 -16.63664293 44.98911226 C-16.63457871 41.37207352 -16.64000304 37.75544203 -16.66453552 34.13847733 C-16.69100714 30.10238443 -16.67704911 26.06739123 -16.65942383 22.03125 C-16.67268707 20.83932541 -16.68595032 19.64740082 -16.69961548 18.4193573 C-16.62810138 11.37149189 -15.99273684 7.45288503 -11.04418945 2.29052734 C-7.64936506 -0.28308593 -4.16429577 0.02505989 0 0 Z " fill="#545454" transform="translate(139.044189453125,164.70947265625)"/>
<path d="M0 0 C0.69625488 0.31308105 1.39250977 0.62616211 2.10986328 0.94873047 C17.70992072 8.0753347 32.15556685 17.63981246 45 29 C45.50837402 29.44811035 46.01674805 29.8962207 46.54052734 30.35791016 C64.05080267 45.88232168 78.70292386 63.45501033 90 84 C90.50974365 84.9266748 90.50974365 84.9266748 91.02978516 85.87207031 C115.20338611 130.5198211 122.23498248 184.88604704 108.16308594 233.91601562 C91.79276587 287.90508817 57.08377079 331.84871081 7.21533203 358.859375 C-39.45258933 382.88764573 -95.20092696 387.74026767 -145.27954102 372.046875 C-194.52820742 355.72997556 -236.80425486 322.04964853 -261.02978516 275.84667969 C-261.94261916 274.10921708 -262.88255779 272.38607204 -263.82421875 270.6640625 C-272.6764361 253.91447372 -278.51276816 235.58899103 -282 217 C-282.18618896 216.01797607 -282.37237793 215.03595215 -282.56420898 214.02416992 C-284.22106666 204.08523399 -284.33878537 194.24395421 -284.31567383 184.1887207 C-284.31252417 181.33440528 -284.336022 178.48114059 -284.36132812 175.62695312 C-284.41419897 160.34373302 -282.8677101 145.40227861 -278.8125 130.625 C-278.6060083 129.86082764 -278.3995166 129.09665527 -278.18676758 128.30932617 C-273.8500629 112.88525353 -267.70622341 98.0363355 -260 84 C-259.66419922 83.38495605 -259.32839844 82.76991211 -258.98242188 82.13623047 C-250.12613114 66.14197106 -238.67478217 52.10666363 -226 39 C-225.36707031 38.32710937 -224.73414063 37.65421875 -224.08203125 36.9609375 C-166.70708863 -22.73080803 -73.17302261 -32.99898541 0 0 Z M-228 51 C-231.95800565 55.45304151 -235.49720705 60.18584529 -239 65 C-239.70253906 65.92039062 -240.40507812 66.84078125 -241.12890625 67.7890625 C-258.5873618 90.95311899 -270.0061292 118.45439014 -275 147 C-275.16701416 147.77230957 -275.33402832 148.54461914 -275.50610352 149.34033203 C-277.31940255 158.49317476 -277.33790569 167.56792287 -277.31567383 176.86083984 C-277.3125298 179.59904442 -277.33598929 182.33614814 -277.36132812 185.07421875 C-277.40373334 196.67051018 -276.38925088 207.65264487 -274 219 C-273.77562256 220.06782715 -273.55124512 221.1356543 -273.32006836 222.23583984 C-265.79717985 255.5144304 -250.55166346 286.21526515 -227 311 C-225.78472745 312.41071844 -224.57579395 313.82693719 -223.375 315.25 C-220.48391648 318.57440751 -217.36780396 321.46029837 -214.00390625 324.30078125 C-212.7376093 325.37454182 -211.49191094 326.47352517 -210.27734375 327.60546875 C-186.707821 349.41375243 -155.81704383 362.51576625 -125 370 C-124.32565918 370.16806152 -123.65131836 370.33612305 -122.95654297 370.50927734 C-110.95747551 373.34798784 -98.82075078 373.2597872 -86.5625 373.25 C-85.73689575 373.24940582 -84.9112915 373.24881165 -84.06066895 373.24819946 C-70.94323487 373.21220909 -58.2000491 372.83534573 -45.375 369.8125 C-44.42915039 369.59182861 -43.48330078 369.37115723 -42.50878906 369.14379883 C-9.0754731 361.11115548 20.83939298 345.44511109 46 322 C48.22695039 320.06432292 50.45802061 318.13400565 52.69921875 316.21484375 C83.5703212 286.49682153 106.12450874 239.53586524 107.16113281 196.51611328 C107.18094947 194.95090921 107.19471248 193.38561941 107.203125 191.8203125 C107.20882507 190.96807098 107.21452515 190.11582947 107.22039795 189.23776245 C107.22978485 187.44107274 107.23635658 185.6443663 107.24023438 183.84765625 C107.24985172 181.16634016 107.28089916 178.4858216 107.3125 175.8046875 C107.4087379 160.28143388 105.73248188 145.20669467 101.1875 130.3125 C100.79739746 129.00164429 100.79739746 129.00164429 100.39941406 127.66430664 C91.9276593 99.70189534 78.52108204 74.8142212 59 53 C57.80890625 51.62714844 57.80890625 51.62714844 56.59375 50.2265625 C52.04121436 45.03480097 47.30373962 40.41037923 42 36 C40.69289063 34.86111328 40.69289063 34.86111328 39.359375 33.69921875 C5.59959823 4.67844808 -37.6758835 -11.18938038 -82.02026367 -11.18530273 C-84.66406573 -11.18748069 -87.30744373 -11.20566409 -89.95117188 -11.22460938 C-142.68775052 -11.40161404 -191.82129765 13.3375129 -228 51 Z " fill="#545454" transform="translate(335,69)"/>
<path d="M0 0 C1.29977531 -0.00845947 1.29977531 -0.00845947 2.62580872 -0.01708984 C3.57860214 -0.01304138 4.53139557 -0.00899292 5.51306152 -0.00482178 C7.01560738 -0.01007874 7.01560738 -0.01007874 8.54850769 -0.01544189 C11.87204848 -0.02427143 15.1953778 -0.0184057 18.5189209 -0.01165771 C20.82055706 -0.01300401 23.12219294 -0.01494425 25.42382812 -0.01745605 C30.25259096 -0.02040898 35.08127991 -0.01610425 39.91003418 -0.0067749 C46.11122773 0.00461968 52.31224817 -0.00193889 58.51343536 -0.01391983 C63.26765252 -0.02113387 68.02182838 -0.01885259 72.77604675 -0.01366425 C75.06308513 -0.01232649 77.3501272 -0.01397985 79.63716125 -0.01862335 C82.82896917 -0.02368107 86.02049357 -0.01598888 89.21228027 -0.00482178 C90.1650737 -0.00887024 91.11786713 -0.0129187 92.09953308 -0.01708984 C92.96604996 -0.0114502 93.83256683 -0.00581055 94.7253418 0 C95.85801609 0.00113108 95.85801609 0.00113108 97.01357269 0.002285 C98.8626709 0.25396729 98.8626709 0.25396729 100.8626709 2.25396729 C101.04790642 5.25455613 101.11530225 8.1709472 101.10095215 11.17193604 C101.11637971 13.00202151 101.13268391 14.83209976 101.14978027 16.66217041 C101.16619695 19.54783032 101.17519183 22.43296206 101.16809082 25.31866455 C101.1654605 28.10369431 101.19367492 30.88712095 101.22595215 33.67193604 C101.21064201 34.9535688 101.21064201 34.9535688 101.19502258 36.26109314 C101.29658377 42.52884125 102.91077046 45.41553774 106.8626709 50.25396729 C108.60480022 55.48035525 109.01957365 61.39771361 106.92126465 66.57818604 C105.68829863 68.60736209 104.37252047 70.42296186 102.8626709 72.25396729 C102.0995459 73.18209229 101.3364209 74.11021729 100.5501709 75.06646729 C95.63857494 79.06427795 91.15078286 80.58717411 84.8001709 80.19146729 C79.5831575 79.43932118 75.04347963 77.96304646 71.6048584 73.69146729 C71.21556152 73.15521729 70.82626465 72.61896729 70.4251709 72.06646729 C67.72268396 69.10032308 67.27538173 68.82991386 63.5501709 68.37896729 C62.3332959 68.33771729 61.1164209 68.29646729 59.8626709 68.25396729 C59.8626709 71.88396729 59.8626709 75.51396729 59.8626709 79.25396729 C61.5126709 79.58396729 63.1626709 79.91396729 64.8626709 80.25396729 C66.8626709 83.25396729 66.8626709 83.25396729 66.6126709 85.81646729 C65.8626709 88.25396729 65.8626709 88.25396729 63.8626709 90.25396729 C61.37700547 90.45345285 59.0051634 90.53386471 56.5189209 90.51959229 C55.79402466 90.52150574 55.06912842 90.52341919 54.32226562 90.52539062 C52.78901828 90.52675215 51.2557594 90.52305792 49.72253418 90.51470947 C47.37184831 90.50400906 45.02192667 90.51460537 42.67126465 90.52740479 C41.18298171 90.52608318 39.69469924 90.52352078 38.2064209 90.51959229 C37.50118286 90.52364075 36.79594482 90.52768921 36.06933594 90.53186035 C31.09259575 90.48389214 31.09259575 90.48389214 28.8626709 88.25396729 C28.30858119 83.04552401 28.30858119 83.04552401 30.1751709 80.37896729 C31.8626709 79.25396729 31.8626709 79.25396729 34.8626709 79.25396729 C34.8626709 75.62396729 34.8626709 71.99396729 34.8626709 68.25396729 C33.69171875 68.26444092 32.5207666 68.27491455 31.31433105 68.28570557 C26.97956385 68.32184225 22.64481001 68.34484461 18.30993652 68.36383057 C16.43198408 68.37390263 14.55404737 68.3875609 12.67614746 68.40484619 C9.98047 68.42904182 7.28499944 68.44043811 4.5892334 68.44927979 C3.74647858 68.45960236 2.90372375 68.46992493 2.03543091 68.4805603 C-0.02354157 68.48095873 -2.08200845 68.37654316 -4.1373291 68.25396729 C-6.8719467 65.51934969 -6.39071175 64.01112055 -6.39611816 60.18365479 C-6.40242249 58.90893311 -6.40872681 57.63421143 -6.41522217 56.32086182 C-6.41164249 54.92356224 -6.40754056 53.52626392 -6.4029541 52.12896729 C-6.40430081 50.70172052 -6.40624139 49.2744742 -6.40875244 47.847229 C-6.41170344 44.85450884 -6.40740692 41.86190797 -6.39807129 38.86920166 C-6.38667666 35.02880355 -6.39323627 31.18868497 -6.40521622 27.34829712 C-6.41243553 24.40067429 -6.41014659 21.45311797 -6.40496063 18.50549316 C-6.40362433 17.08927375 -6.40527119 15.67304835 -6.40991974 14.25683594 C-6.41498585 12.27931836 -6.40589818 10.30177967 -6.39611816 8.32427979 C-6.39452698 7.19780029 -6.39293579 6.0713208 -6.39129639 4.91070557 C-5.96448596 0.44586434 -4.03300031 0.00402731 0 0 Z " fill="#A3A3A3" transform="translate(214.1373291015625,73.74603271484375)"/>
<path d="M0 0 C17.47149099 0 31.34120383 5.98215553 44 18 C49.81456517 24.17238457 53.61648297 31.26917624 57 39 C57.34289062 39.76570313 57.68578125 40.53140625 58.0390625 41.3203125 C62.85232452 54.2306508 60.8235779 70.44724683 56 83 C49.13973477 97.93972879 37.89492597 109.43749757 22.43652344 115.20751953 C14.3988885 118.07032489 8.84863207 119 0 119 C0 79.73 0 40.46 0 0 Z " fill="#D7D7D9" transform="translate(302,180)"/>
<path d="M0 0 C17.16 0 34.32 0 52 0 C52 24.42 52 48.84 52 74 C54.64 74 57.28 74 60 74 C60 74.33 60 74.66 60 75 C37.23 75 14.46 75 -9 75 C-9 74.67 -9 74.34 -9 74 C-6.03 74 -3.06 74 0 74 C0 49.58 0 25.16 0 0 Z " fill="#D6D6D6" transform="translate(143,240)"/>
<path d="M0 0 C0.84127441 -0.00563965 1.68254883 -0.0112793 2.54931641 -0.01708984 C3.93642822 -0.01101715 3.93642822 -0.01101715 5.3515625 -0.00482178 C6.32399902 -0.00832642 7.29643555 -0.01183105 8.29833984 -0.01544189 C11.5244859 -0.02427073 14.75041407 -0.01840596 17.9765625 -0.01165771 C20.21093793 -0.01300403 22.44531308 -0.01494428 24.6796875 -0.01745605 C29.36721581 -0.02040888 34.05466802 -0.01610455 38.7421875 -0.0067749 C44.76178038 0.00461968 50.78119492 -0.00193894 56.80078125 -0.01391983 C61.41602938 -0.02113413 66.03123499 -0.01885248 70.64648438 -0.01366425 C72.86653667 -0.01232656 75.08659278 -0.0139796 77.30664062 -0.01862335 C80.40505254 -0.0236815 83.50317243 -0.0159883 86.6015625 -0.00482178 C87.52630371 -0.00887024 88.45104492 -0.0129187 89.40380859 -0.01708984 C90.66572021 -0.00863037 90.66572021 -0.00863037 91.953125 0 C92.68611816 0.00075405 93.41911133 0.0015081 94.17431641 0.002285 C95.9765625 0.25396729 95.9765625 0.25396729 97.9765625 2.25396729 C98.16179802 5.25455613 98.22919385 8.1709472 98.21484375 11.17193604 C98.23027131 13.00202151 98.24657552 14.83209976 98.26367188 16.66217041 C98.28008855 19.54783032 98.28908343 22.43296206 98.28198242 25.31866455 C98.2793521 28.10369431 98.30756652 30.88712095 98.33984375 33.67193604 C98.32453362 34.9535688 98.32453362 34.9535688 98.30891418 36.26109314 C98.41047537 42.52884125 100.02466206 45.41553774 103.9765625 50.25396729 C105.71869182 55.48035525 106.13346525 61.39771361 104.03515625 66.57818604 C102.80219023 68.60736209 101.48641207 70.42296186 99.9765625 72.25396729 C99.2134375 73.18209229 98.4503125 74.11021729 97.6640625 75.06646729 C92.75246654 79.06427795 88.26467446 80.58717411 81.9140625 80.19146729 C74.06388287 79.05969292 69.75462191 75.35926541 64.9765625 69.25396729 C61.37294613 66.85155637 59.68248035 66.98268356 55.39379883 66.93511963 C54.73011795 66.92507401 54.06643707 66.91502838 53.38264465 66.90467834 C51.19130308 66.87381416 49.00008385 66.85680261 46.80859375 66.83990479 C45.28829391 66.8211957 43.76800449 66.80162247 42.24772644 66.78121948 C38.24799738 66.72986471 34.24823464 66.69025703 30.24835205 66.65307617 C26.1661341 66.61305741 22.08405664 66.56195539 18.00195312 66.51177979 C9.99358552 66.41498093 1.98514845 66.33058895 -6.0234375 66.25396729 C-6.0234375 65.92396729 -6.0234375 65.59396729 -6.0234375 65.25396729 C-3.5484375 64.75896729 -3.5484375 64.75896729 -1.0234375 64.25396729 C-1.3534375 63.92396729 -1.6834375 63.59396729 -2.0234375 63.25396729 C-2.06424533 61.25438365 -2.06598106 59.25351475 -2.0234375 57.25396729 C0.8515625 56.62896729 0.8515625 56.62896729 3.9765625 56.25396729 C5.9765625 58.25396729 5.9765625 58.25396729 6.1640625 60.81646729 C5.9765625 63.25396729 5.9765625 63.25396729 4.9765625 64.25396729 C24.1165625 64.58396729 43.2565625 64.91396729 62.9765625 65.25396729 C62.6465625 61.95396729 62.3165625 58.65396729 61.9765625 55.25396729 C39.5365625 55.25396729 17.0965625 55.25396729 -6.0234375 55.25396729 C-6.0234375 58.22396729 -6.0234375 61.19396729 -6.0234375 64.25396729 C-6.3534375 64.25396729 -6.6834375 64.25396729 -7.0234375 64.25396729 C-7.0234375 60.95396729 -7.0234375 57.65396729 -7.0234375 54.25396729 C18.2215625 53.75896729 18.2215625 53.75896729 43.9765625 53.25396729 C43.9765625 52.92396729 43.9765625 52.59396729 43.9765625 52.25396729 C50.5765625 52.25396729 57.1765625 52.25396729 63.9765625 52.25396729 C64.3065625 50.60396729 64.6365625 48.95396729 64.9765625 47.25396729 C68.55546676 42.30011676 73.08691691 38.89534392 78.9765625 37.25396729 C82.9365625 37.25396729 86.8965625 37.25396729 90.9765625 37.25396729 C90.9765625 27.35396729 90.9765625 17.45396729 90.9765625 7.25396729 C60.2865625 7.25396729 29.5965625 7.25396729 -2.0234375 7.25396729 C-2.0234375 22.10396729 -2.0234375 36.95396729 -2.0234375 52.25396729 C-3.0134375 52.25396729 -4.0034375 52.25396729 -5.0234375 52.25396729 C-5.09941499 45.90028531 -5.15200647 39.5467202 -5.18823242 33.19268799 C-5.20333194 31.03053408 -5.22381321 28.86841086 -5.24975586 26.70635986 C-5.28608767 23.60105828 -5.30315212 20.49616114 -5.31640625 17.39068604 C-5.33189011 16.42184982 -5.34737396 15.45301361 -5.36332703 14.45481873 C-5.36355362 13.55411148 -5.36378021 12.65340424 -5.36401367 11.72540283 C-5.37067551 10.9326445 -5.37733734 10.13988617 -5.38420105 9.32310486 C-4.92254117 6.67528248 -4.09278634 5.92904465 -2.0234375 4.25396729 C1.02401833 3.96273874 3.86628645 3.85471971 6.91430664 3.88165283 C8.28539833 3.87617683 8.28539833 3.87617683 9.68418884 3.87059021 C12.71022022 3.86247387 15.73571798 3.87610288 18.76171875 3.89068604 C20.86014302 3.89120447 22.95856779 3.89068743 25.05699158 3.88917542 C29.4561182 3.88926518 33.85506174 3.89970513 38.25415039 3.91778564 C43.90267901 3.94048685 49.5509403 3.94101488 55.19950199 3.934268 C59.53253063 3.93093236 63.86549792 3.93755022 68.19851494 3.94739723 C70.28180051 3.95125548 72.36509289 3.95239488 74.44838142 3.95081139 C77.35512508 3.95044199 80.26152126 3.96302523 83.16821289 3.97930908 C84.03527863 3.97683167 84.90234436 3.97435425 85.79568481 3.97180176 C91.74782073 4.02522552 91.74782073 4.02522552 93.9765625 6.25396729 C94.15159245 8.83500035 94.20818529 11.30704891 94.171875 13.88677979 C94.1690451 14.63861542 94.16621521 15.39045105 94.16329956 16.16506958 C94.15209124 18.56986306 94.12698602 20.9742861 94.1015625 23.37896729 C94.09153352 25.00786816 94.08240753 26.63677487 94.07421875 28.26568604 C94.05214985 32.26192284 94.01761601 36.25788223 93.9765625 40.25396729 C94.6365625 40.25396729 95.2965625 40.25396729 95.9765625 40.25396729 C95.6465625 28.04396729 95.3165625 15.83396729 94.9765625 3.25396729 C61.6465625 2.92396729 28.3165625 2.59396729 -6.0234375 2.25396729 C-3.65539257 -0.11407764 -3.21114107 0.00330339 0 0 Z " fill="#757575" transform="translate(217.0234375,73.74603271484375)"/>
<path d="M0 0 C30.69 0 61.38 0 93 0 C93 9.9 93 19.8 93 30 C89.04 30.33 85.08 30.66 81 31 C74.71850511 33.33312668 70.7464221 36.41277535 67 42 C66.67 42.99 66.34 43.98 66 45 C61.56271849 45.11586755 57.12582409 45.18714058 52.6875 45.25 C51.42486328 45.28351563 50.16222656 45.31703125 48.86132812 45.3515625 C47.65283203 45.36445312 46.44433594 45.37734375 45.19921875 45.390625 C44.08377686 45.41157227 42.96833496 45.43251953 41.8190918 45.45410156 C39 45 39 45 37.11254883 42.97558594 C36.74540771 42.32364258 36.3782666 41.67169922 36 41 C41.625 38.875 41.625 38.875 45 40 C45.99 39.67 46.98 39.34 48 39 C48 37.68 48 36.36 48 35 C49.32 35 50.64 35 52 35 C52 32.69 52 30.38 52 28 C51.34 28 50.68 28 50 28 C50 26.35 50 24.7 50 23 C46.71303767 22.20046862 45.28976808 21.90341064 42 23 C42 22.34 42 21.68 42 21 C39.03 21.495 39.03 21.495 36 22 C36 23.32 36 24.64 36 26 C34.68 26 33.36 26 32 26 C31.87625 25.360625 31.7525 24.72125 31.625 24.0625 C31.41875 23.381875 31.2125 22.70125 31 22 C30.34 21.67 29.68 21.34 29 21 C29 19.68 29 18.36 29 17 C29.66 16.67 30.32 16.34 31 16 C30.34 14.02 29.68 12.04 29 10 C28.38125 10.185625 27.7625 10.37125 27.125 10.5625 C25 11 25 11 23 10 C23 8.35 23 6.7 23 5 C20.36 5 17.72 5 15 5 C14.67 6.65 14.34 8.3 14 10 C13.01 10 12.02 10 11 10 C9.09483976 10.46319381 7.19938691 10.96723193 5.3125 11.5 C2.6828125 12.2425 2.6828125 12.2425 0 13 C0 8.71 0 4.42 0 0 Z " fill="#D8D8D8" transform="translate(215,81)"/>
<path d="M0 0 C17.16 0 34.32 0 52 0 C52 13.86 52 27.72 52 42 C34.84 42 17.68 42 0 42 C0 28.14 0 14.28 0 0 Z " fill="#D8D8D8" transform="translate(143,180)"/>
<path d="M0 0 C5.76584296 3.65591392 10.06824303 8.34926035 12.25390625 14.90625 C13.11664034 23.1145486 12.41617244 29.31152251 7.25390625 35.90625 C3.20493432 40.23080641 -1.09832974 42.57368061 -6.98046875 43.3125 C-14.09985329 43.50235025 -19.19100396 43.2423865 -24.90625 38.76171875 C-29.77908958 33.84749625 -32.82993006 28.32047992 -33.12109375 21.34375 C-33.03352189 15.34507767 -31.23946736 10.76187218 -27.74609375 5.90625 C-20.23592583 -1.29708227 -10.01089701 -3.9872705 0 0 Z " fill="#030303" transform="translate(179.74609375,256.09375)"/>
<path d="M0 0 C4.29 0 8.58 0 13 0 C13 2.31 13 4.62 13 7 C13.639375 6.030625 14.27875 5.06125 14.9375 4.0625 C17 1 17 1 18 0 C20.75 -0.375 20.75 -0.375 24 0 C26.875 2.3125 26.875 2.3125 29 5 C29 5.99 29 6.98 29 8 C29.66 8 30.32 8 31 8 C31.268125 7.236875 31.53625 6.47375 31.8125 5.6875 C33.60854093 1.6227758 33.60854093 1.6227758 36 0 C39.50115397 -0.5327843 41.47551713 -0.24394552 44.6875 1.25 C50.31161111 7.93813213 50.33359621 17.31644371 50.203125 25.69921875 C50 28 50 28 49 29 C44.66469082 29.14393457 40.33842269 29.04212061 36 29 C35.505 21.575 35.505 21.575 35 14 C34.01 14 33.02 14 32 14 C31.67 18.95 31.34 23.9 31 29 C20.94140625 29.09765625 20.94140625 29.09765625 18 29 C16.05909174 27.05909174 16.60080565 23.52706098 16.4375 20.9375 C16.35371094 19.64714844 16.26992188 18.35679687 16.18359375 17.02734375 C16.12300781 16.02832031 16.06242187 15.02929688 16 14 C15.01 13.67 14.02 13.34 13 13 C12.67 18.28 12.34 23.56 12 29 C7.71 29 3.42 29 -1 29 C-1.02699224 25.10412022 -1.04683573 21.20842786 -1.0625 17.3125 C-1.07087891 16.20970703 -1.07925781 15.10691406 -1.08789062 13.97070312 C-1.09111328 12.90400391 -1.09433594 11.83730469 -1.09765625 10.73828125 C-1.10289307 9.75899658 -1.10812988 8.77971191 -1.11352539 7.77075195 C-1 5 -1 5 0 0 Z " fill="#575757" transform="translate(313,366)"/>
<path d="M0 0 C4.34007035 4.02250423 8.2001654 7.64473563 8.80078125 13.828125 C8.97340805 20.33342976 8.51613357 24.13910689 4.5625 29.375 C0.17499872 33.53750121 -3.79647698 35.44410052 -9.8125 35.75 C-15.52108203 35.58906153 -19.1542855 33.64275255 -23.16796875 29.65625 C-27.65611126 24.62441327 -28.87179689 20.75526692 -28.7734375 14.0078125 C-28.10499413 8.76908188 -25.50380634 5.3363208 -21.74609375 1.76953125 C-15.30705405 -3.02950251 -7.17782845 -3.39315527 0 0 Z " fill="#D3D3D3" transform="translate(310.4375,115.625)"/>
<path d="M0 0 C5.03985731 0.44469329 7.37634988 2.71343362 11 6 C10.61095461 8.46044923 10.28572918 9.72159721 8.4765625 11.484375 C7.86554688 11.90203125 7.25453125 12.3196875 6.625 12.75 C6.01914062 13.17796875 5.41328125 13.6059375 4.7890625 14.046875 C3 15 3 15 0 15 C0.375 13.0625 0.375 13.0625 1 11 C1.66 10.67 2.32 10.34 3 10 C-78.18 9.67 -159.36 9.34 -243 9 C-243 8.01 -243 7.02 -243 6 C-161.82 5.67 -80.64 5.34 3 5 C2.01 4.34 1.02 3.68 0 3 C0 2.01 0 1.02 0 0 Z " fill="#010101" transform="translate(366,326)"/>
<path d="M0 0 C3.5 1.6875 3.5 1.6875 6 4 C6.78375 4.66 7.5675 5.32 8.375 6 C10.9375324 10.73082905 10.77699607 15.73602664 10 21 C8.10222392 24.88906577 6.45368297 26.95039184 2.2890625 28.4921875 C-4.00822417 29.88919649 -11.32453186 30.3361691 -17.1875 27.3125 C-20.78277228 24.35638723 -21.70770977 21.90550746 -22.40625 17.3515625 C-22.57868391 12.33660966 -22.54350933 8.90468169 -19.25 4.9375 C-13.71632514 -0.7778359 -7.61961397 -0.82733074 0 0 Z " fill="#565656" transform="translate(300,366)"/>
<path d="M0 0 C22.44 0 44.88 0 68 0 C68.495 4.95 68.495 4.95 69 10 C49.53 10 30.06 10 10 10 C10.33 7.69 10.66 5.38 11 3 C7.52852158 2.25042843 7.52852158 2.25042843 4 2 C4.66 4.64 5.32 7.28 6 10 C4.02 10 2.04 10 0 10 C0 6.7 0 3.4 0 0 Z " fill="#D8D8D8" transform="translate(211,129)"/>
<path d="M0 0 C1.97226562 0.03673828 1.97226562 0.03673828 3.984375 0.07421875 C7.25 0.3125 7.25 0.3125 9.25 1.3125 C9.25 4.6125 9.25 7.9125 9.25 11.3125 C7.98542969 11.16941406 7.98542969 11.16941406 6.6953125 11.0234375 C5.59960938 10.91257812 4.50390625 10.80171875 3.375 10.6875 C2.28445313 10.57148438 1.19390625 10.45546875 0.0703125 10.3359375 C-0.86039062 10.32820313 -1.79109375 10.32046875 -2.75 10.3125 C-4.9991908 12.13953227 -4.9991908 12.13953227 -5 14.8125 C-4.9991908 17.48546773 -4.9991908 17.48546773 -2.75 19.3125 C-0.69881302 19.37230758 -0.69881302 19.37230758 1.5625 19 C2.32175781 18.90074219 3.08101563 18.80148437 3.86328125 18.69921875 C6.33628137 18.29851988 8.79339799 17.8038204 11.25 17.3125 C11.25 20.9425 11.25 24.5725 11.25 28.3125 C7.2111202 29.32221995 3.50245262 29.56820019 -0.625 29.625 C-1.66720703 29.66850586 -1.66720703 29.66850586 -2.73046875 29.71289062 C-7.92410207 29.77646617 -10.74882289 28.55297428 -14.75 25.3125 C-18.13616109 21.47485077 -18.26612556 17.67565227 -18.09765625 12.74609375 C-17.39201883 7.80663183 -14.85038051 5.19829017 -11.0859375 2.16796875 C-7.07475174 -0.06307719 -4.55656666 -0.13057355 0 0 Z " fill="#565656" transform="translate(264.75,365.6875)"/>
<path d="M0 0 C2.64 0 5.28 0 8 0 C8.33 1.32 8.66 2.64 9 4 C9.763125 3.9175 10.52625 3.835 11.3125 3.75 C14 4 14 4 15.8125 5.8125 C17 8 17 8 17 11 C16.01 11.495 16.01 11.495 15 12 C15 12.99 15 13.98 15 15 C15.66 15.33 16.32 15.66 17 16 C16.38722388 18.96175123 15.74627478 20.38058783 14 23 C11.375 23.1875 11.375 23.1875 9 23 C8.67 24.32 8.34 25.64 8 27 C5.36 27 2.72 27 0 27 C-0.33 25.68 -0.66 24.36 -1 23 C-2.98 23 -4.96 23 -7 23 C-9.5888796 19.19282411 -8.69179793 16.38138688 -8 12 C-8.226875 11.113125 -8.45375 10.22625 -8.6875 9.3125 C-9 7 -9 7 -7.375 4.625 C-5 3 -5 3 -2.25 3.25 C-1.5075 3.4975 -0.765 3.745 0 4 C0 2.68 0 1.36 0 0 Z " fill="#D3D3D3" transform="translate(297,119)"/>
<path d="M0 0 C2.64 0 5.28 0 8 0 C8 1.65 8 3.3 8 5 C9.98 4.67 11.96 4.34 14 4 C15.5625 6.3125 15.5625 6.3125 17 9 C16.67 9.99 16.34 10.98 16 12 C15.34 12 14.68 12 14 12 C14 13.32 14 14.64 14 16 C14.99 16.33 15.98 16.66 17 17 C16.1875 19.9375 16.1875 19.9375 15 23 C11.86650268 24.04449911 11.01031744 23.93423645 8 23 C8 24.32 8 25.64 8 27 C5.36 27 2.72 27 0 27 C0 25.68 0 24.36 0 23 C-2.31 23.33 -4.62 23.66 -7 24 C-9.47901307 20.50021684 -8.87239888 17.88028532 -8.21484375 13.890625 C-7.87117721 11.91885254 -7.87117721 11.91885254 -8.625 9.75 C-9 8 -9 8 -7.5625 5.75 C-6.7890625 4.88375 -6.7890625 4.88375 -6 4 C-4.68 4.33 -3.36 4.66 -2 5 C-1.34 3.35 -0.68 1.7 0 0 Z " fill="#D0D0D0" transform="translate(230,86)"/>
<path d="M0 0 C0.33 0 0.66 0 1 0 C1 2.97 1 5.94 1 9 C2.98 9 4.96 9 7 9 C7 8.34 7 7.68 7 7 C7.66 7 8.32 7 9 7 C9 7.99 9 8.98 9 10 C11.31 10 13.62 10 16 10 C16 10.33 16 10.66 16 11 C14.02 11 12.04 11 10 11 C10.98267859 12.20561184 10.98267859 12.20561184 12.84765625 12.09765625 C14.8984375 12.06510417 16.94921875 12.03255208 19 12 C19.33 13.32 19.66 14.64 20 16 C20.66 16 21.32 16 22 16 C22.35050464 21.841744 22.16727335 25.8531808 19 31 C18.34 30.67 17.68 30.34 17 30 C17 29.34 17 28.68 17 28 C13.7 28.66 10.4 29.32 7 30 C7 29.34 7 28.68 7 28 C6.071875 27.7834375 6.071875 27.7834375 5.125 27.5625 C3 27 3 27 1 26 C1 21.38 1 16.76 1 12 C0.34 12 -0.32 12 -1 12 C-1 16.62 -1 21.24 -1 26 C-3.64 26 -6.28 26 -9 26 C-9.02685412 23.68756208 -9.04632841 21.3750373 -9.0625 19.0625 C-9.07410156 17.77472656 -9.08570313 16.48695313 -9.09765625 15.16015625 C-9 12 -9 12 -8 11 C-5.67182036 10.63239269 -3.3381615 10.29758419 -1 10 C-0.67 6.7 -0.34 3.4 0 0 Z " fill="#060606" transform="translate(170,258)"/>
<path d="M0 0 C0.99 0.495 0.99 0.495 2 1 C1.278125 1.66 0.55625 2.32 -0.1875 3 C-4.82809404 7.73340592 -8.27243295 12.24592422 -8.5625 19.0625 C-8.24223804 24.706035 -6.55502502 28.43163281 -2.50390625 32.50390625 C2.05545016 36.49476436 5.72544128 37.36316427 11.58984375 37.27734375 C17.17711765 36.63439975 21.36689086 34.07871947 24.875 29.75 C25.57625 28.8425 26.2775 27.935 27 27 C27.66 27 28.32 27 29 27 C27.36097714 32.21507274 24.65947711 35.3338849 20.0234375 38.23828125 C14.19119128 41.23683894 9.34363661 41.63061969 3 40 C-2.4236936 37.94636844 -5.52053824 34.44597892 -9 30 C-12.60361637 27.59758909 -14.29408215 27.72871628 -18.58276367 27.68115234 C-19.24644455 27.67110672 -19.91012543 27.6610611 -20.59391785 27.65071106 C-22.78525942 27.61984687 -24.97647865 27.60283532 -27.16796875 27.5859375 C-28.68826859 27.56722841 -30.20855801 27.54765519 -31.72883606 27.5272522 C-35.72856512 27.47589743 -39.72832786 27.43628974 -43.72821045 27.39910889 C-47.8104284 27.35909012 -51.89250586 27.3079881 -55.97460938 27.2578125 C-63.98297698 27.16101365 -71.99141405 27.07662166 -80 27 C-80 26.67 -80 26.34 -80 26 C-78.35 25.67 -76.7 25.34 -75 25 C-75.33 24.67 -75.66 24.34 -76 24 C-76.04080783 22.00041636 -76.04254356 19.99954746 -76 18 C-73.125 17.375 -73.125 17.375 -70 17 C-68 19 -68 19 -67.8125 21.5625 C-68 24 -68 24 -69 25 C-49.86 25.33 -30.72 25.66 -11 26 C-11.33 22.7 -11.66 19.4 -12 16 C-34.44 16 -56.88 16 -80 16 C-80 18.97 -80 21.94 -80 25 C-80.33 25 -80.66 25 -81 25 C-81 21.7 -81 18.4 -81 15 C-55.755 14.505 -55.755 14.505 -30 14 C-30 13.67 -30 13.34 -30 13 C-23.4 13 -16.8 13 -10 13 C-9.67 11.35 -9.34 9.7 -9 8 C-7.44140625 6.015625 -7.44140625 6.015625 -5.5625 4.25 C-4.94503906 3.65703125 -4.32757813 3.0640625 -3.69140625 2.453125 C-2 1 -2 1 0 0 Z " fill="#757575" transform="translate(291,113)"/>
<path d="M0 0 C0.56243408 0.24959473 1.12486816 0.49918945 1.7043457 0.75634766 C2.41699219 3.00708008 2.41699219 3.00708008 2.7043457 5.75634766 C1.34912109 7.79272461 1.34912109 7.79272461 -0.69799805 9.74462891 C-1.4230957 10.45039063 -2.14819336 11.15615234 -2.89526367 11.88330078 C-3.66676758 12.60453125 -4.43827148 13.32576172 -5.2331543 14.06884766 C-6.00079102 14.80941406 -6.76842773 15.54998047 -7.55932617 16.31298828 C-9.45871465 18.1415921 -11.37064503 19.95479729 -13.2956543 21.75634766 C-11.94301365 24.81382281 -10.46101978 26.78075679 -8.00268555 29.03369141 C-7.058125 29.92797852 -7.058125 29.92797852 -6.09448242 30.84033203 C-4.76592422 32.08005841 -3.42989124 33.31182066 -2.08666992 34.53564453 C-0.33019306 36.21252821 1.28338087 37.78622886 2.7043457 39.75634766 C2.63012695 42.69775391 2.63012695 42.69775391 1.7043457 44.75634766 C-1.62830092 45.15503396 -2.95435474 45.00414285 -5.71508789 42.99975586 C-8.38310068 40.37089354 -11.04341797 37.73857796 -13.6706543 35.06884766 C-14.61038086 34.15683594 -15.55010742 33.24482422 -16.51831055 32.30517578 C-17.40131836 31.41894531 -18.28432617 30.53271484 -19.1940918 29.61962891 C-20.00539551 28.80792236 -20.81669922 27.99621582 -21.65258789 27.15991211 C-23.2956543 24.75634766 -23.2956543 24.75634766 -23.32275391 22.25854492 C-21.15950302 16.98848114 -16.47185152 13.32292337 -12.4831543 9.38134766 C-11.56727539 8.44162109 -10.65139648 7.50189453 -9.70776367 6.53369141 C-8.38035156 5.20917969 -8.38035156 5.20917969 -7.02612305 3.85791016 C-6.21554443 3.04660645 -5.40496582 2.23530273 -4.56982422 1.39941406 C-2.2956543 -0.24365234 -2.2956543 -0.24365234 0 0 Z " fill="#575757" transform="translate(147.295654296875,356.24365234375)"/>
<path d="M0 0 C6.06961039 0.58182164 10.2600942 6.70606613 14.3125 10.75 C15.25673828 11.6575 16.20097656 12.565 17.17382812 13.5 C18.06134766 14.38171875 18.94886719 15.2634375 19.86328125 16.171875 C20.68094971 16.9772168 21.49861816 17.78255859 22.34106445 18.61230469 C24 21 24 21 24.01342773 23.50927734 C21.94797301 28.58558887 17.58004528 32.07315829 13.75 35.875 C12.89019531 36.76703125 12.03039062 37.6590625 11.14453125 38.578125 C9.88962891 39.83496094 9.88962891 39.83496094 8.609375 41.1171875 C7.84592773 41.88659668 7.08248047 42.65600586 6.29589844 43.44873047 C4 45 4 45 1.21191406 44.74267578 C0.48198242 44.49759277 -0.24794922 44.25250977 -1 44 C-1.71264648 42.24316406 -1.71264648 42.24316406 -2 40 C-0.64477539 38.07714844 -0.64477539 38.07714844 1.40234375 36.109375 C2.12744141 35.40039062 2.85253906 34.69140625 3.59960938 33.9609375 C4.37111328 33.23132813 5.14261719 32.50171875 5.9375 31.75 C6.70513672 31.00492187 7.47277344 30.25984375 8.26367188 29.4921875 C10.16510754 27.64980263 12.07720048 25.8200352 14 24 C12.64735936 20.94252485 11.16536549 18.97559086 8.70703125 16.72265625 C8.07732422 16.12646484 7.44761719 15.53027344 6.79882812 14.91601562 C5.47026993 13.67628924 4.13423695 12.444527 2.79101562 11.22070312 C1.03575634 9.54498186 -0.57485148 7.96486344 -2 6 C-1.98892753 3.27986317 -1.93915832 1.93915832 0 0 Z " fill="#575757" transform="translate(191,356)"/>
<path d="M0 0 C2.625 0.375 2.625 0.375 5 1 C5.15271066 6.14990549 4.61782856 10.89394868 3.57421875 15.91796875 C3.42596146 16.65646561 3.27770416 17.39496246 3.12495422 18.15583801 C2.81117398 19.71203992 2.49415949 21.26759286 2.17407227 22.82250977 C1.69271438 25.16215542 1.22144789 27.5036513 0.75195312 29.84570312 C-0.95362802 38.2882794 -2.80488318 46.66832574 -5 55 C-7.375 55.625 -7.375 55.625 -10 56 C-10.66 55.34 -11.32 54.68 -12 54 C-11.60208288 46.31224122 -9.78627865 38.87290429 -8.125 31.375 C-7.5797321 28.88563485 -7.03545289 26.39605293 -6.4921875 23.90625 C-6.23276367 22.71773438 -5.97333984 21.52921875 -5.70605469 20.3046875 C-4.58384918 15.05220694 -3.59277108 9.77781893 -2.640625 4.4921875 C-2 2 -2 2 0 0 Z " fill="#5A5A5A" transform="translate(172,351)"/>
<path d="M0 0 C1.22759033 0.00338379 2.45518066 0.00676758 3.7199707 0.01025391 C13.9140476 0.06452135 24.10696512 0.22010873 34.29867554 0.44439697 C36.01054842 0.48134314 37.72248763 0.51533923 39.43447876 0.54632568 C41.83556789 0.59139867 44.23600441 0.64931775 46.63671875 0.7109375 C47.35721405 0.72249878 48.07770935 0.73406006 48.82003784 0.74597168 C52.46845972 0.85495403 54.06908255 1.04605504 57.1875 3.125 C27.8175 2.795 -1.5525 2.465 -31.8125 2.125 C-31.66381829 27.66995258 -31.66381829 27.66995258 -31.50585938 53.21484375 C-31.43941333 63.62677516 -31.37400875 74.03870595 -31.31518555 84.45068359 C-31.27234684 92.03250718 -31.22606965 99.61430055 -31.17562145 107.19607747 C-31.14901798 111.21248434 -31.12416485 115.2288852 -31.10342598 119.245327 C-31.08386792 123.02257988 -31.05972666 126.79977522 -31.03200912 130.57697678 C-31.02263428 131.96615048 -31.01496056 133.35533683 -31.00908089 134.74452972 C-31.00082719 136.63560974 -30.98596147 138.5266575 -30.97071838 140.41769409 C-30.96426583 141.47775602 -30.95781328 142.53781796 -30.9511652 143.63000298 C-30.97807256 146.12459758 -30.97807256 146.12459758 -29.8125 148.125 C-19.57177813 148.14825651 -9.33106262 148.16598257 0.90968037 148.17681217 C5.6657893 148.18201203 10.42188005 148.18905657 15.17797852 148.20043945 C19.77508407 148.21137191 24.37217222 148.21729862 28.96928978 148.21987724 C30.71579448 148.22171293 32.46229833 148.22529727 34.20879555 148.23073006 C43.25474702 148.25772847 52.19150926 148.22979826 61.1875 147.125 C57.28961749 151.02288251 50.17646267 150.23921638 44.86580658 150.24942875 C44.107649 150.24583064 43.34949142 150.24223253 42.56835938 150.23852539 C41.7347715 150.23864593 40.90118362 150.23876646 40.04233551 150.23889065 C37.37194553 150.23815048 34.70162732 150.23056354 32.03125 150.22265625 C30.37141961 150.22118405 28.71158876 150.22016505 27.05175781 150.21960449 C20.93033141 150.21438384 14.80891498 150.20042258 8.6875 150.1875 C-5.0075 150.166875 -18.7025 150.14625 -32.8125 150.125 C-32.8125 100.955 -32.8125 51.785 -32.8125 1.125 C-10.59918108 -0.04412205 -10.59918108 -0.04412205 0 0 Z " fill="#656DAC" transform="translate(260.8125,163.875)"/>
<path d="M0 0 C2.64 0 5.28 0 8 0 C8 0.99 8 1.98 8 3 C8.66 3 9.32 3 10 3 C10 2.01 10 1.02 10 0 C18.33333333 0 26.66666667 0 35 0 C35.495 2.475 35.495 2.475 36 5 C34.94512267 5.96671756 33.88066719 6.92298745 32.8125 7.875 C32.22082031 8.40867187 31.62914062 8.94234375 31.01953125 9.4921875 C24.80015379 14.13566855 17.43861604 13.95240559 10 13 C6.48566291 11.54904045 3.50744321 9.89218317 1 7 C1 5.68 1 4.36 1 3 C0.67 2.01 0.34 1.02 0 0 Z " fill="#181818" transform="translate(152,286)"/>
<path d="M0 0 C1.3948613 0.00303635 1.3948613 0.00303635 2.81790161 0.00613403 C4.2787468 0.00350555 4.2787468 0.00350555 5.769104 0.00082397 C9.0054398 -0.00359642 12.24172146 -0.00065589 15.47805786 0.00271606 C17.71625784 0.00204308 19.95445774 0.0010731 22.19265747 -0.00018311 C26.89033705 -0.00166033 31.58799766 0.00049528 36.28567505 0.00515747 C42.322164 0.01085477 48.3586085 0.0075759 54.39509583 0.00158501 C59.01887347 -0.00201993 63.6426405 -0.00088233 68.26641846 0.0017128 C70.49287928 0.00238225 72.71934106 0.001553 74.94580078 -0.00076675 C78.05163141 -0.00329218 81.15738896 0.00054576 84.26321411 0.00613403 C85.19312164 0.0041098 86.12302917 0.00208557 87.08111572 0 C93.4262956 0.0212663 93.4262956 0.0212663 94.54055786 1.13552856 C94.62914432 3.87446941 94.65579265 6.58806127 94.63821411 9.32693481 C94.63679916 10.14677353 94.63538422 10.96661224 94.63392639 11.81129456 C94.62831075 14.44024239 94.61575565 17.0691063 94.60305786 19.69802856 C94.59804487 21.47602213 94.59348162 23.25401702 94.58938599 25.03201294 C94.57833625 29.39988402 94.56106117 33.76769204 94.54055786 38.13552856 C93.88055786 38.13552856 93.22055786 38.13552856 92.54055786 38.13552856 C92.51550171 37.11080444 92.49044556 36.08608032 92.46463013 35.03030396 C92.37071303 31.2414318 92.27045469 27.45274975 92.16824341 23.66409302 C92.12483489 22.02188553 92.08316428 20.37963117 92.04324341 18.73733521 C91.98568346 16.38164111 91.92194895 14.02618429 91.85696411 11.67068481 C91.84025162 10.9321376 91.82353912 10.19359039 91.80632019 9.43266296 C92.00507773 5.99252229 92.00507773 5.99252229 90.54055786 3.13552856 C87.62935237 3.02961754 84.74174281 2.98875197 81.8298645 2.99026489 C80.91609543 2.98690628 80.00232635 2.98354767 79.06086731 2.98008728 C76.02413595 2.97054671 72.98745954 2.96863263 69.95071411 2.96755981 C67.84943112 2.96434943 65.74814836 2.96098553 63.64686584 2.95747375 C59.23585491 2.95147473 54.8248636 2.94963465 50.41384888 2.95022583 C44.74959519 2.95032751 39.0854667 2.93667312 33.42124271 2.91945362 C29.07965004 2.9083588 24.73808787 2.90630584 20.39648247 2.90683556 C18.30760707 2.90565171 16.21873098 2.90120748 14.12986946 2.89350319 C11.21337125 2.8837538 8.29714798 2.88656124 5.38064575 2.89260864 C4.51043793 2.88698914 3.6402301 2.88136963 2.74365234 2.87557983 C-1.835532 2.68965934 -1.835532 2.68965934 -5.45944214 5.13552856 C-5.7892182 7.15386799 -5.7892182 7.15386799 -5.77828979 9.49343872 C-5.79815948 10.3942215 -5.81802917 11.29500427 -5.83850098 12.2230835 C-5.85582779 13.68407974 -5.85582779 13.68407974 -5.87350464 15.17459106 C-5.89287079 16.17058319 -5.91223694 17.16657532 -5.93218994 18.19274902 C-5.99209179 21.38192107 -6.03841352 24.571129 -6.08444214 27.76052856 C-6.12261215 29.9193987 -6.1616633 32.07825344 -6.20162964 34.23709106 C-6.29780184 39.53643391 -6.38281803 44.835869 -6.45944214 50.13552856 C-6.78944214 50.13552856 -7.11944214 50.13552856 -7.45944214 50.13552856 C-7.48471052 43.17549409 -7.50227436 36.21547137 -7.51437378 29.25540161 C-7.51941555 26.88560545 -7.52624879 24.51581241 -7.53488159 22.14602661 C-7.54695404 18.74798818 -7.55267185 15.34999071 -7.55709839 11.95193481 C-7.56225967 10.88528091 -7.56742096 9.81862701 -7.57273865 8.71965027 C-7.57281418 7.73870895 -7.57288971 6.75776764 -7.57296753 5.74710083 C-7.57518814 4.87884171 -7.57740875 4.01058258 -7.57969666 3.11601257 C-7.30814871 -1.35613852 -3.64625785 0.01222068 0 0 Z " fill="#C9C9C9" transform="translate(218.45944213867188,75.86447143554688)"/>
<path d="M0 0 C0 0.66 0 1.32 0 2 C0.763125 1.62875 1.52625 1.2575 2.3125 0.875 C3.199375 0.58625 4.08625 0.2975 5 0 C5.99 0.66 6.98 1.32 8 2 C8.1875 4.625 8.1875 4.625 8 7 C8.66 7 9.32 7 10 7 C10 9.31 10 11.62 10 14 C8.68 14 7.36 14 6 14 C6.33 15.32 6.66 16.64 7 18 C1.375 20.125 1.375 20.125 -2 19 C-3.66362417 18.65179959 -5.32995171 18.31595508 -7 18 C-8 15 -8 15 -7 12 C-7.99 12 -8.98 12 -10 12 C-10 10.02 -10 8.04 -10 6 C-9.01 5.67 -8.02 5.34 -7 5 C-6.6278958 3.67696283 -6.29369827 2.34262065 -6 1 C-4 0 -4 0 0 0 Z " fill="#616161" transform="translate(257,102)"/>
<path d="M0 0 C7.2696451 -0.73375857 12.15400675 -0.27158984 18.0546875 4.22265625 C22.78625573 8.54567542 25.52053628 12.44732914 26 19 C25.34 19 24.68 19 24 19 C24 21.31 24 23.62 24 26 C23.67 26 23.34 26 23 26 C23 22.37 23 18.74 23 15 C20.36 15 17.72 15 15 15 C15 19.62 15 24.24 15 29 C14.67 29 14.34 29 14 29 C14.01160156 27.96359375 14.02320313 26.9271875 14.03515625 25.859375 C14.04453837 24.48958514 14.05363812 23.11979332 14.0625 21.75 C14.07087891 21.06808594 14.07925781 20.38617188 14.08789062 19.68359375 C14.10428392 16.30657446 14.05628768 13.22708361 13 10 C12.34 10 11.68 10 11 10 C11 10.66 11 11.32 11 12 C9.02 12 7.04 12 5 12 C4.67 9.36 4.34 6.72 4 4 C3.67 6.97 3.34 9.94 3 13 C0.69 13 -1.62 13 -4 13 C-3.38876602 9.43446845 -2.40218232 6.33018302 -1 3 C-0.67 2.01 -0.34 1.02 0 0 Z " fill="#292929" transform="translate(166,255)"/>
<path d="M0 0 C1.36128021 -0.00065712 1.36128021 -0.00065712 2.75006104 -0.00132751 C5.75326971 0.00076449 8.7559219 0.02411505 11.7590332 0.04760742 C13.83982539 0.05320191 15.92062152 0.0574727 18.00141907 0.06047058 C23.48091522 0.07193092 28.96017321 0.10140844 34.4395752 0.13458252 C40.02975238 0.16525773 45.61996801 0.17897047 51.21020508 0.1940918 C62.1810129 0.2262769 73.15164388 0.2774877 84.12231445 0.34057617 C84.12231445 1.00057617 84.12231445 1.66057617 84.12231445 2.34057617 C38.58231445 2.83557617 38.58231445 2.83557617 -7.87768555 3.34057617 C-8.20768555 18.19057617 -8.53768555 33.04057617 -8.87768555 48.34057617 C-9.86768555 48.34057617 -10.85768555 48.34057617 -11.87768555 48.34057617 C-11.95366303 41.9868942 -12.00625452 35.63332908 -12.04248047 29.27929688 C-12.05757999 27.11714297 -12.07806125 24.95501974 -12.10400391 22.79296875 C-12.14033572 19.68766717 -12.15740017 16.58277003 -12.1706543 13.47729492 C-12.18613815 12.50845871 -12.20162201 11.5396225 -12.21757507 10.54142761 C-12.21780167 9.64072037 -12.21802826 8.74001312 -12.21826172 7.81201172 C-12.22492355 7.01925339 -12.23158539 6.22649506 -12.2384491 5.40971375 C-11.12909908 -0.95289632 -5.19521529 -0.06524517 0 0 Z " fill="#5E5E5E" transform="translate(223.877685546875,77.659423828125)"/>
<path d="M0 0 C0.84127441 -0.00563965 1.68254883 -0.0112793 2.54931641 -0.01708984 C3.93642822 -0.01101715 3.93642822 -0.01101715 5.3515625 -0.00482178 C6.32399902 -0.00832642 7.29643555 -0.01183105 8.29833984 -0.01544189 C11.5244859 -0.02427073 14.75041407 -0.01840596 17.9765625 -0.01165771 C20.21093793 -0.01300403 22.44531308 -0.01494428 24.6796875 -0.01745605 C29.36721581 -0.02040888 34.05466802 -0.01610455 38.7421875 -0.0067749 C44.76178038 0.00461968 50.78119492 -0.00193894 56.80078125 -0.01391983 C61.41602938 -0.02113413 66.03123499 -0.01885248 70.64648438 -0.01366425 C72.86653667 -0.01232656 75.08659278 -0.0139796 77.30664062 -0.01862335 C80.40505254 -0.0236815 83.50317243 -0.0159883 86.6015625 -0.00482178 C87.52630371 -0.00887024 88.45104492 -0.0129187 89.40380859 -0.01708984 C90.66572021 -0.00863037 90.66572021 -0.00863037 91.953125 0 C92.68611816 0.00075405 93.41911133 0.0015081 94.17431641 0.002285 C95.9765625 0.25396729 95.9765625 0.25396729 97.9765625 2.25396729 C98.15181305 5.05081525 98.20799439 7.74724808 98.171875 10.54302979 C98.1690451 11.36145355 98.16621521 12.17987732 98.16329956 13.02310181 C98.15208782 15.64187122 98.12698179 18.26030093 98.1015625 20.87896729 C98.09153397 22.65239985 98.0824079 24.42583777 98.07421875 26.19927979 C98.05214528 30.55097354 98.01760894 34.90241279 97.9765625 39.25396729 C96.9865625 39.74896729 96.9865625 39.74896729 95.9765625 40.25396729 C95.6465625 28.04396729 95.3165625 15.83396729 94.9765625 3.25396729 C61.6465625 2.92396729 28.3165625 2.59396729 -6.0234375 2.25396729 C-3.65539257 -0.11407764 -3.21114107 0.00330339 0 0 Z " fill="#545454" transform="translate(217.0234375,73.74603271484375)"/>
<path d="M0 0 C2.64 0 5.28 0 8 0 C8.33 1.32 8.66 2.64 9 4 C9.763125 3.9175 10.52625 3.835 11.3125 3.75 C14 4 14 4 15.8125 5.8125 C17 8 17 8 17 11 C16.01 11.495 16.01 11.495 15 12 C15 12.99 15 13.98 15 15 C15.66 15.33 16.32 15.66 17 16 C16.38722388 18.96175123 15.74627478 20.38058783 14 23 C11.375 23.1875 11.375 23.1875 9 23 C8.67 24.32 8.34 25.64 8 27 C5.36 27 2.72 27 0 27 C-0.33 25.68 -0.66 24.36 -1 23 C-2.98 23 -4.96 23 -7 23 C-9.5888796 19.19282411 -8.69179793 16.38138688 -8 12 C-8.226875 11.113125 -8.45375 10.22625 -8.6875 9.3125 C-9 7 -9 7 -7.375 4.625 C-5 3 -5 3 -2.25 3.25 C-1.5075 3.4975 -0.765 3.745 0 4 C0 2.68 0 1.36 0 0 Z M2 2 C2 3.32 2 4.64 2 6 C-0.64 6.33 -3.28 6.66 -6 7 C-6 7.99 -6 8.98 -6 10 C-5.34 10 -4.68 10 -4 10 C-4.66 13.3 -5.32 16.6 -6 20 C-4.35 20 -2.7 20 -1 20 C-0.01 20.33 0.98 20.66 2 21 C2 21.99 2 22.98 2 24 C2.99 24 3.98 24 5 24 C5 23.01 5 22.02 5 21 C8.96 20.505 8.96 20.505 13 20 C13.33 19.01 13.66 18.02 14 17 C13.34 17 12.68 17 12 17 C12.165 15.906875 12.33 14.81375 12.5 13.6875 C13.06718184 10.12474127 13.06718184 10.12474127 13 7 C12.05125 6.9175 11.1025 6.835 10.125 6.75 C7 6 7 6 5.625 3.9375 C5.41875 3.298125 5.2125 2.65875 5 2 C4.01 2 3.02 2 2 2 Z " fill="#5F5F5F" transform="translate(297,119)"/>
<path d="M0 0 C2.64 0 5.28 0 8 0 C8 1.65 8 3.3 8 5 C9.98 4.67 11.96 4.34 14 4 C15.5625 6.3125 15.5625 6.3125 17 9 C16.67 9.99 16.34 10.98 16 12 C15.34 12 14.68 12 14 12 C14 13.32 14 14.64 14 16 C14.99 16.33 15.98 16.66 17 17 C16.1875 19.9375 16.1875 19.9375 15 23 C11.86650268 24.04449911 11.01031744 23.93423645 8 23 C8 24.32 8 25.64 8 27 C5.36 27 2.72 27 0 27 C0 25.68 0 24.36 0 23 C-2.31 23.33 -4.62 23.66 -7 24 C-9.47901307 20.50021684 -8.87239888 17.88028532 -8.21484375 13.890625 C-7.87117721 11.91885254 -7.87117721 11.91885254 -8.625 9.75 C-9 8 -9 8 -7.5625 5.75 C-6.7890625 4.88375 -6.7890625 4.88375 -6 4 C-4.68 4.33 -3.36 4.66 -2 5 C-1.34 3.35 -0.68 1.7 0 0 Z M2 3 C1.67 3.99 1.34 4.98 1 6 C-2.5625 7.1875 -2.5625 7.1875 -6 8 C-5.91621094 8.61488281 -5.83242187 9.22976562 -5.74609375 9.86328125 C-5.64425781 10.67152344 -5.54242188 11.47976562 -5.4375 12.3125 C-5.33308594 13.11300781 -5.22867188 13.91351563 -5.12109375 14.73828125 C-5 17 -5 17 -6 20 C-4.865625 20.268125 -3.73125 20.53625 -2.5625 20.8125 C-1.386875 21.204375 -0.21125 21.59625 1 22 C1.33 22.99 1.66 23.98 2 25 C2.99 25 3.98 25 5 25 C5.33 24.01 5.66 23.02 6 22 C9.465 21.505 9.465 21.505 13 21 C13 19.68 13 18.36 13 17 C13 13.66666667 13 10.33333333 13 7 C10.36 6.67 7.72 6.34 5 6 C5 5.01 5 4.02 5 3 C4.01 3 3.02 3 2 3 Z " fill="#606060" transform="translate(230,86)"/>
<path d="M0 0 C6.93 0 13.86 0 21 0 C21 3.63 21 7.26 21 11 C14.07 11 7.14 11 0 11 C0 7.37 0 3.74 0 0 Z " fill="#D2D2D2" transform="translate(251,142)"/>
<path d="M0 0 C1.29349365 0.00523682 2.5869873 0.01047363 3.91967773 0.01586914 C4.9496714 0.01799156 4.9496714 0.01799156 6.00047302 0.02015686 C8.20144949 0.0257706 10.40232557 0.03832532 12.60327148 0.05102539 C14.09220231 0.05603863 15.58113473 0.06060184 17.07006836 0.06469727 C20.72700223 0.07574446 24.38387707 0.09301826 28.04077148 0.11352539 C28.42295916 1.76967196 28.7547225 3.43809563 29.04077148 5.11352539 C28.04077148 6.11352539 28.04077148 6.11352539 25.08154297 6.22705078 C23.78804932 6.22181396 22.49455566 6.21657715 21.16186523 6.21118164 C20.13187157 6.20905922 20.13187157 6.20905922 19.08106995 6.20689392 C16.88009347 6.20128018 14.6792174 6.18872546 12.47827148 6.17602539 C10.98934066 6.17101216 9.50040824 6.16644894 8.01147461 6.16235352 C4.35454074 6.15130632 0.6976659 6.13403252 -2.95922852 6.11352539 C-3.34141619 4.45737882 -3.67317953 2.78895515 -3.95922852 1.11352539 C-2.95922852 0.11352539 -2.95922852 0.11352539 0 0 Z " fill="#D7D6D6" transform="translate(248.959228515625,155.886474609375)"/>
<path d="M0 0 C0.33 0 0.66 0 1 0 C1 38.94 1 77.88 1 118 C12.62146867 116.36159322 12.62146867 116.36159322 24 114 C23.67 114.66 23.34 115.32 23 116 C22.01 116 21.02 116 20 116 C20 116.66 20 117.32 20 118 C19 119.625 19 119.625 17 121 C14.28141321 121.2627431 11.74236049 121.13487019 9 121 C9 120.34 9 119.68 9 119 C6.03 119 3.06 119 0 119 C0 79.73 0 40.46 0 0 Z " fill="#626BAF" transform="translate(301,181)"/>
<path d="M0 0 C0.73734375 0.10957031 1.4746875 0.21914063 2.234375 0.33203125 C2.96140625 0.42871094 3.6884375 0.52539062 4.4375 0.625 C7.66233812 1.28282741 10.81976059 2.2403557 13.984375 3.14453125 C13.654375 8.09453125 13.324375 13.04453125 12.984375 18.14453125 C12.654375 18.14453125 12.324375 18.14453125 11.984375 18.14453125 C11.984375 14.84453125 11.984375 11.54453125 11.984375 8.14453125 C10.19 8.88703125 10.19 8.88703125 8.359375 9.64453125 C4.75831136 10.98297968 1.86056531 11.68539501 -2.015625 11.14453125 C-3.890625 9.95703125 -3.890625 9.95703125 -5.015625 8.14453125 C-5.390625 5.64453125 -5.390625 5.64453125 -5.015625 3.14453125 C-3.42813819 1.0393857 -2.67391596 0.19173428 0 0 Z " fill="#CFCFCF" transform="translate(264.015625,374.85546875)"/>
<path d="M0 0 C0.99 0.33 1.98 0.66 3 1 C2.67 1.66 2.34 2.32 2 3 C1.88159887 4.57206643 1.82296967 6.14883269 1.79467773 7.72509766 C1.77473251 8.70596344 1.75478729 9.68682922 1.73423767 10.69741821 C1.71752518 11.75891083 1.70081268 12.82040344 1.68359375 13.9140625 C1.66281265 14.99883881 1.64203156 16.08361511 1.62062073 17.20126343 C1.55509366 20.67577621 1.49622553 24.15036624 1.4375 27.625 C1.39431779 29.97657058 1.3507036 32.32813326 1.30664062 34.6796875 C1.19940907 40.4530427 1.09764856 46.2264752 1 52 C0.67 52 0.34 52 0 52 C-0.33 56.62 -0.66 61.24 -1 66 C-1.33 66 -1.66 66 -2 66 C-2.04628625 57.68999208 -2.0818502 49.38003779 -2.10362434 41.06993294 C-2.11407343 37.21145203 -2.128253 33.35305915 -2.15087891 29.49462891 C-2.1725674 25.77287808 -2.18456014 22.05121206 -2.18975449 18.32940292 C-2.19345745 16.90758809 -2.20068819 15.48577803 -2.21146011 14.06399918 C-2.22592119 12.07672886 -2.22681646 10.08937369 -2.22705078 8.10205078 C-2.231492 6.96953888 -2.23593323 5.83702698 -2.24050903 4.67019653 C-2 2 -2 2 0 0 Z " fill="#6E6E6E" transform="translate(210,74)"/>
<path d="M0 0 C1 1 1 1 1.125 3.5 C1 6 1 6 0 7 C19.47 7 38.94 7 59 7 C59 7.66 59 8.32 59 9 C35.9 9 12.8 9 -11 9 C-11 8.67 -11 8.34 -11 8 C-9.35 7.67 -7.7 7.34 -6 7 C-6.33 6.67 -6.66 6.34 -7 6 C-7.04080783 4.00041636 -7.04254356 1.99954746 -7 0 C-4.31633121 -1.3418344 -2.84719317 -0.73004953 0 0 Z " fill="#B6B6B6" transform="translate(222,131)"/>
<path d="M0 0 C2.05078125 0.03255208 4.1015625 0.06510417 6.15234375 0.09765625 C6.15234375 4.71765625 6.15234375 9.33765625 6.15234375 14.09765625 C3.51234375 14.09765625 0.87234375 14.09765625 -1.84765625 14.09765625 C-3.15930467 11.47435941 -2.98028471 9.46067 -2.97265625 6.53515625 C-2.97523438 5.54386719 -2.9778125 4.55257813 -2.98046875 3.53125 C-2.79581657 0.14777043 -2.79581657 0.14777043 0 0 Z " fill="#CFCFCF" transform="translate(152.84765625,269.90234375)"/>
<path d="M0 0 C2.4375 0.625 2.4375 0.625 5 2 C6 4.9375 6 4.9375 6 8 C4.95581055 9.6730957 4.95581055 9.6730957 3 11 C0.48272281 11.26153286 -1.78103966 11.3497922 -4.29296875 11.29296875 C-5.35201164 11.28660149 -5.35201164 11.28660149 -6.43244934 11.28010559 C-8.68452303 11.26333034 -10.93569742 11.22568243 -13.1875 11.1875 C-14.71548185 11.17245157 -16.24347776 11.15876344 -17.77148438 11.14648438 C-21.51466872 11.11343089 -25.25718196 11.06165832 -29 11 C-26.20822431 8.20822431 -24.36816428 8.68786516 -20.4609375 8.5859375 C-19.15898437 8.54726562 -17.85703125 8.50859375 -16.515625 8.46875 C-15.13542138 8.43729237 -13.75521296 8.40604509 -12.375 8.375 C-10.98695459 8.33682066 -9.59893289 8.29776895 -8.2109375 8.2578125 C-4.80742815 8.16327057 -1.40392835 8.07772103 2 8 C2 6.68 2 5.36 2 4 C-7.57 3.67 -17.14 3.34 -27 3 C-27 2.67 -27 2.34 -27 2 C-26.21761963 1.97494385 -25.43523926 1.9498877 -24.62915039 1.92407227 C-21.10675051 1.80850212 -17.5846444 1.68560051 -14.0625 1.5625 C-12.83080078 1.52318359 -11.59910156 1.48386719 -10.33007812 1.44335938 C-8.5753418 1.38051758 -8.5753418 1.38051758 -6.78515625 1.31640625 C-5.70113525 1.27974854 -4.61711426 1.24309082 -3.50024414 1.20532227 C-1.060737 1.27635735 -1.060737 1.27635735 0 0 Z " fill="#606368" transform="translate(275,153)"/>
<path d="M0 0 C0.66 0 1.32 0 2 0 C0.36097714 5.21507274 -2.34052289 8.3338849 -6.9765625 11.23828125 C-12.80880872 14.23683894 -17.65636339 14.63061969 -24 13 C-29.3786052 10.96344075 -32.62750872 7.49665504 -36 3 C-35.01 2.34 -34.02 1.68 -33 1 C-32.29875 1.928125 -31.5975 2.85625 -30.875 3.8125 C-27.76883038 7.48263896 -24.77398308 9.58235571 -19.8984375 10.31640625 C-14.16184355 10.62196366 -9.67304269 9.36703949 -5 6 C-3.16807925 4.09368653 -1.62053592 2.09716414 0 0 Z " fill="#636363" transform="translate(318,140)"/>
<path d="M0 0 C0.94875 0.185625 1.8975 0.37125 2.875 0.5625 C5.89868793 1.28686632 5.89868793 1.28686632 8 0 C8.12375 0.94875 8.2475 1.8975 8.375 2.875 C8.71687177 6.08667191 8.71687177 6.08667191 11 8 C10.01 8 9.02 8 8 8 C7.67 9.98 7.34 11.96 7 14 C6.34 14 5.68 14 5 14 C5 13.34 5 12.68 5 12 C2.69 12.33 0.38 12.66 -2 13 C-2.12375 12.195625 -2.2475 11.39125 -2.375 10.5625 C-2.684375 9.2940625 -2.684375 9.2940625 -3 8 C-3.66 7.67 -4.32 7.34 -5 7 C-5 6.34 -5 5.68 -5 5 C-4.360625 4.731875 -3.72125 4.46375 -3.0625 4.1875 C-0.66868314 3.11332248 -0.66868314 3.11332248 0 0 Z " fill="#C9C9C9" transform="translate(254,105)"/>
<path d="M0 0 C2.64 0 5.28 0 8 0 C8 4.62 8 9.24 8 14 C5.36 14 2.72 14 0 14 C0 9.38 0 4.76 0 0 Z " fill="#D6D6D6" transform="translate(181,270)"/>
<path d="M0 0 C-0.30921884 1.45903258 -0.62248799 2.91720722 -0.9375 4.375 C-1.11152344 5.18710937 -1.28554687 5.99921875 -1.46484375 6.8359375 C-2 9 -2 9 -3 11 C-5.64860427 11.59355614 -8.29197322 11.74209269 -11 12 C-11 16.29 -11 20.58 -11 25 C-11.99 25.33 -12.98 25.66 -14 26 C-15.71018034 20.86945899 -15.5192555 15.38857529 -14.375 10.125 C-12.44612576 7.14401254 -10.01444925 5.83231229 -7 4 C-5.63875 2.88625 -5.63875 2.88625 -4.25 1.75 C-2 0 -2 0 0 0 Z " fill="#262626" transform="translate(162,259)"/>
<path d="M0 0 C3.5 0.25 3.5 0.25 5.5 2.25 C5.8125 5.75 5.8125 5.75 5.5 9.25 C2.04754176 11.55163882 0.55261287 11.59490322 -3.5 11.25 C-5.5 9.25 -5.5 9.25 -5.75 5.75 C-5.40898007 0.975721 -4.774279 0.34101993 0 0 Z " fill="#575757" transform="translate(239.5,383.75)"/>
<path d="M0 0 C5.17780166 -0.04954105 10.35546446 -0.08578636 15.53344727 -0.10986328 C17.29388839 -0.11990351 19.05431291 -0.13353844 20.81469727 -0.15087891 C23.34916285 -0.17521436 25.88340739 -0.18650296 28.41796875 -0.1953125 C29.20149216 -0.20563507 29.98501556 -0.21595764 30.7922821 -0.22659302 C35.0047027 -0.22745248 38.201481 0.1648246 42 2 C44.32980179 2.51476799 46.66099346 2.93291147 49.01171875 3.33984375 C51 4 51 4 53 7 C52.07703125 6.71995117 51.1540625 6.43990234 50.203125 6.15136719 C39.08223737 2.97102217 28.51740419 2.34454914 17 2.25 C15.24215935 2.22175247 13.48434505 2.19181331 11.7265625 2.16015625 C7.48442417 2.08735044 3.24259419 2.03714832 -1 2 C-0.67 1.34 -0.34 0.68 0 0 Z " fill="#C4CBE3" transform="translate(278,163)"/>
<path d="M0 0 C2.31 0 4.62 0 7 0 C7 4.62 7 9.24 7 14 C4.69 14 2.38 14 0 14 C0 9.38 0 4.76 0 0 Z " fill="#D7D7D7" transform="translate(171,270)"/>
<path d="M0 0 C2.31 0 4.62 0 7 0 C7 4.62 7 9.24 7 14 C4.69 14 2.38 14 0 14 C0 9.38 0 4.76 0 0 Z " fill="#D4D4D4" transform="translate(161,270)"/>
<path d="M0 0 C2.4375 0.75 2.4375 0.75 4.4375 2.75 C4.0625 5.875 4.0625 5.875 3.4375 8.75 C0.0625 9.375 0.0625 9.375 -3.5625 9.75 C-5.5625 7.75 -5.5625 7.75 -5.875 4.75 C-5.771875 3.76 -5.66875 2.77 -5.5625 1.75 C-2.5625 -0.25 -2.5625 -0.25 0 0 Z " fill="#686868" transform="translate(301.5625,127.25)"/>
<path d="M0 0 C2.5625 0.3125 2.5625 0.3125 4.4375 1.5 C5.5625 3.3125 5.5625 3.3125 5.375 5.875 C4.5625 8.3125 4.5625 8.3125 2.5625 10.3125 C0.0625 10.5625 0.0625 10.5625 -2.4375 10.3125 C-4.4375 8.3125 -4.4375 8.3125 -4.6875 5.3125 C-4.37675292 1.58353509 -3.7821044 0.48488518 0 0 Z " fill="#676767" transform="translate(233.4375,94.6875)"/>
<path d="M0 0 C4.55555556 0.55555556 4.55555556 0.55555556 6 2 C6.1875 5.4375 6.1875 5.4375 6 9 C5.34 9.66 4.68 10.32 4 11 C-0.55555556 10.44444444 -0.55555556 10.44444444 -2 9 C-2.1875 5.5625 -2.1875 5.5625 -2 2 C-1.34 1.34 -0.68 0.68 0 0 Z " fill="#D5D5D5" transform="translate(292,375)"/>
<path d="M0 0 C-0.55260426 3.31562557 -1.16825705 6.15062207 -3 9 C-3.99 9.33 -4.98 9.66 -6 10 C-5.34 7.69 -4.68 5.38 -4 3 C-4.53109375 3.40992188 -5.0621875 3.81984375 -5.609375 4.2421875 C-6.66898438 5.05042969 -6.66898438 5.05042969 -7.75 5.875 C-8.44609375 6.40867187 -9.1421875 6.94234375 -9.859375 7.4921875 C-11.84722603 8.89238914 -13.79843386 9.97855265 -16 11 C-14.69114898 5.43738316 -10.61114029 2.8853868 -6 0 C-3 -1 -3 -1 0 0 Z " fill="#1A1A1A" transform="translate(166,256)"/>
<path d="M0 0 C0.33 0 0.66 0 1 0 C1 9.9 1 19.8 1 30 C-0.65 30 -2.3 30 -4 30 C-4 30.66 -4 31.32 -4 32 C-4.61488281 32.06058594 -5.22976563 32.12117188 -5.86328125 32.18359375 C-6.67152344 32.26738281 -7.47976563 32.35117188 -8.3125 32.4375 C-9.11300781 32.51871094 -9.91351563 32.59992188 -10.73828125 32.68359375 C-13.16087179 32.95265693 -13.16087179 32.95265693 -16 34 C-15.6875 32.0625 -15.6875 32.0625 -15 30 C-12 29 -12 29 0 29 C0 19.43 0 9.86 0 0 Z " fill="#7B7B7B" transform="translate(308,82)"/>
<path d="M0 0 C0.99 0.33 1.98 0.66 3 1 C2.34 3.97 1.68 6.94 1 10 C1.66 10 2.32 10 3 10 C2.67 10.99 2.34 11.98 2 13 C-0.64 13.33 -3.28 13.66 -6 14 C-6 14.99 -6 15.98 -6 17 C-6.99 17 -7.98 17 -9 17 C-9 16.01 -9 15.02 -9 14 C-9.66 13.67 -10.32 13.34 -11 13 C-10.34 13 -9.68 13 -9 13 C-9 12.34 -9 11.68 -9 11 C-7.02 10.67 -5.04 10.34 -3 10 C-2.67 9.01 -2.34 8.02 -2 7 C-1.34 7 -0.68 7 0 7 C0 4.69 0 2.38 0 0 Z " fill="#CBCBCB" transform="translate(308,126)"/>
<path d="M0 0 C2.67311706 2.67311706 2.25763604 4.01191426 2.265625 7.7421875 C2.26949219 9.46501953 2.26949219 9.46501953 2.2734375 11.22265625 C2.26570313 12.42792969 2.25796875 13.63320312 2.25 14.875 C2.25773437 16.07253906 2.26546875 17.27007812 2.2734375 18.50390625 C2.27085937 19.65503906 2.26828125 20.80617187 2.265625 21.9921875 C2.26336914 23.04776855 2.26111328 24.10334961 2.25878906 25.19091797 C2.0022049 27.9760664 1.4350329 29.62941685 0 32 C-0.86039692 21.18547252 -1.0229267 10.81154832 0 0 Z " fill="#6670B1" transform="translate(375,224)"/>
<path d="M0 0 C1.4540625 0.0309375 1.4540625 0.0309375 2.9375 0.0625 C2.9375 4.72916667 2.9375 9.39583333 2.9375 14.0625 C1.6175 13.7325 0.2975 13.4025 -1.0625 13.0625 C-1.0625 12.4025 -1.0625 11.7425 -1.0625 11.0625 C-1.7225 10.7325 -2.3825 10.4025 -3.0625 10.0625 C-2.85625 9.32 -2.65 8.5775 -2.4375 7.8125 C-2.01841249 4.73919159 -2.44300989 3.63463134 -4.0625 1.0625 C-3.0625 0.0625 -3.0625 0.0625 0 0 Z " fill="#C9C9C9" transform="translate(240.0625,92.9375)"/>
<path d="M0 0 C0.33 0 0.66 0 1 0 C1.08636719 0.60328125 1.17273438 1.2065625 1.26171875 1.828125 C2.19978269 7.22313317 2.19978269 7.22313317 5.5 11.5 C7.88495525 12.9744345 7.88495525 12.9744345 10 14 C9.67 14.99 9.34 15.98 9 17 C8.01 16.67 7.02 16.34 6 16 C6 15.34 6 14.68 6 14 C5.01 14.33 4.02 14.66 3 15 C1.68 14.34 0.36 13.68 -1 13 C-0.67 8.71 -0.34 4.42 0 0 Z M-2 13 C-1.67 13.66 -1.34 14.32 -1 15 C-1.99 15.33 -2.98 15.66 -4 16 C-4 15.34 -4 14.68 -4 14 C-3.34 13.67 -2.68 13.34 -2 13 Z " fill="#C9C9C9" transform="translate(246,380)"/>
<path d="M0 0 C2.4375 0.625 2.4375 0.625 5 2 C5.8125 5.125 5.8125 5.125 6 8 C5.01 8.66 4.02 9.32 3 10 C2.67 8.02 2.34 6.04 2 4 C-7.57 3.67 -17.14 3.34 -27 3 C-27 2.67 -27 2.34 -27 2 C-26.21761963 1.97494385 -25.43523926 1.9498877 -24.62915039 1.92407227 C-21.10675051 1.80850212 -17.5846444 1.68560051 -14.0625 1.5625 C-12.83080078 1.52318359 -11.59910156 1.48386719 -10.33007812 1.44335938 C-8.5753418 1.38051758 -8.5753418 1.38051758 -6.78515625 1.31640625 C-5.70113525 1.27974854 -4.61711426 1.24309082 -3.50024414 1.20532227 C-1.060737 1.27635735 -1.060737 1.27635735 0 0 Z " fill="#6A6A6A" transform="translate(275,153)"/>
<path d="M0 0 C1 1 1 1 1.125 3.5 C1 6 1 6 0 7 C-3 7.125 -3 7.125 -6 7 C-7 6 -7 6 -7.0625 2.9375 C-7.041875 1.968125 -7.02125 0.99875 -7 0 C-4.31633121 -1.3418344 -2.84719317 -0.73004953 0 0 Z " fill="#717171" transform="translate(222,131)"/>
<path d="M0 0 C1.17480821 3.52442462 0.75838631 4.8988289 -0.1875 8.4375 C-0.42855469 9.38496094 -0.66960937 10.33242188 -0.91796875 11.30859375 C-2.14796483 14.36804248 -3.60744091 15.76843554 -6 18 C-7.12287424 19.55554138 -8.2077847 21.13930362 -9.25 22.75 C-9.77078125 23.54921875 -10.2915625 24.3484375 -10.828125 25.171875 C-11.21484375 25.77515625 -11.6015625 26.3784375 -12 27 C-12.99 26.67 -13.98 26.34 -15 26 C-14.38125 25.32130859 -14.38125 25.32130859 -13.75 24.62890625 C-7.4930833 17.24071666 -3.88013864 8.77818378 0 0 Z " fill="#CCD1E5" transform="translate(374,262)"/>
<path d="M0 0 C0.33 1.32 0.66 2.64 1 4 C0.01 4.33 -0.98 4.66 -2 5 C-2.268125 6.093125 -2.53625 7.18625 -2.8125 8.3125 C-4.2725172 12.84623761 -5.96950874 13.68461141 -10 16 C-10.33 16.66 -10.66 17.32 -11 18 C-13.375 19.6875 -13.375 19.6875 -16 21 C-16.99 20.67 -17.98 20.34 -19 20 C-18.1646875 19.41605469 -18.1646875 19.41605469 -17.3125 18.8203125 C-10.136787 13.55973912 -4.91934184 7.37901276 0 0 Z " fill="#676FB1" transform="translate(354,269)"/>
<path d="M0 0 C1.32 0 2.64 0 4 0 C4 0.66 4 1.32 4 2 C4.763125 1.62875 5.52625 1.2575 6.3125 0.875 C7.199375 0.58625 8.08625 0.2975 9 0 C9.99 0.66 10.98 1.32 12 2 C12.1875 4.625 12.1875 4.625 12 7 C12.66 7.33 13.32 7.66 14 8 C11.03 7.505 11.03 7.505 8 7 C8 6.01 8 5.02 8 4 C6.7934375 4.2784375 6.7934375 4.2784375 5.5625 4.5625 C4.716875 4.706875 3.87125 4.85125 3 5 C2.67 4.67 2.34 4.34 2 4 C1.34 4.66 0.68 5.32 0 6 C0 4.02 0 2.04 0 0 Z " fill="#696969" transform="translate(253,102)"/>
<path d="M0 0 C0.33 0 0.66 0 1 0 C1 2.97 1 5.94 1 9 C2.98 9 4.96 9 7 9 C7.33 9.99 7.66 10.98 8 12 C5.03 12 2.06 12 -1 12 C-1 16.62 -1 21.24 -1 26 C-1.33 26 -1.66 26 -2 26 C-2 21.38 -2 16.76 -2 12 C-3.98 12 -5.96 12 -8 12 C-8 11.67 -8 11.34 -8 11 C-4.535 10.505 -4.535 10.505 -1 10 C-0.67 6.7 -0.34 3.4 0 0 Z " fill="#363636" transform="translate(170,258)"/>
<path d="M0 0 C2.625 0.375 2.625 0.375 5 1 C5.625 3.375 5.625 3.375 6 6 C5.34 6.66 4.68 7.32 4 8 C1.375 7.625 1.375 7.625 -1 7 C-1.625 4.625 -1.625 4.625 -2 2 C-1.34 1.34 -0.68 0.68 0 0 Z " fill="#5D5D5D" transform="translate(255,108)"/>
<path d="M0 0 C1.11375 0.495 1.11375 0.495 2.25 1 C5.13883312 2.22782871 5.13883312 2.22782871 9 2 C9.66 3.98 10.32 5.96 11 8 C10.01 8.33 9.02 8.66 8 9 C8.33 10.65 8.66 12.3 9 14 C8.01 14 7.02 14 6 14 C6 11 6 8 6 5 C4.35 4.67 2.7 4.34 1 4 C0.67 2.68 0.34 1.36 0 0 Z " fill="#585858" transform="translate(236,89)"/>
<path d="M0 0 C2.64 0 5.28 0 8 0 C8.99 3.3 9.98 6.6 11 10 C6.23925541 7.52807492 3.07079661 5.54477899 0 1 C0 0.67 0 0.34 0 0 Z " fill="#C1C1C1" transform="translate(152,286)"/>
<path d="M0 0 C3.36720387 1.39332574 4.9859524 2.9789286 7 6 C6.67 6.66 6.34 7.32 6 8 C3.4375 8.625 3.4375 8.625 1 9 C-0.73543126 6.39685311 -1.61121812 5.01305957 -2 2 C-1.34 1.34 -0.68 0.68 0 0 Z " fill="#595959" transform="translate(116,389)"/>
<path d="M0 0 C2.31 0 4.62 0 7 0 C5.4114658 4.28904235 2.56872632 6.32345526 -1 9 C-1.66 9 -2.32 9 -3 9 C-2.01 6.03 -1.02 3.06 0 0 Z " fill="#C5C5C5" transform="translate(180,286)"/>
<path d="M0 0 C0.99384397 3.25258026 1.04826731 6.03465371 0.87890625 9.421875 C0.83056641 10.44667969 0.78222656 11.47148437 0.73242188 12.52734375 C0.67634766 13.59082031 0.62027344 14.65429688 0.5625 15.75 C0.51029297 16.82894531 0.45808594 17.90789062 0.40429688 19.01953125 C0.27480531 21.67999422 0.13984639 24.34006452 0 27 C-0.33 27 -0.66 27 -1 27 C-1.08302368 26.16021606 -1.08302368 26.16021606 -1.16772461 25.3034668 C-1.4207582 22.76444195 -1.6790698 20.225981 -1.9375 17.6875 C-2.02451172 16.80642578 -2.11152344 15.92535156 -2.20117188 15.01757812 C-2.28818359 14.17001953 -2.37519531 13.32246094 -2.46484375 12.44921875 C-2.543396 11.66893311 -2.62194824 10.88864746 -2.70288086 10.0847168 C-2.96337997 7.81117999 -2.96337997 7.81117999 -4 5 C-3.01 4.34 -2.02 3.68 -1 3 C-0.67 2.01 -0.34 1.02 0 0 Z " fill="#C3C3C3" transform="translate(312,367)"/>
<path d="M0 0 C0.66 0 1.32 0 2 0 C2 1.98 2 3.96 2 6 C0.68 6.33 -0.64 6.66 -2 7 C-2 7.66 -2 8.32 -2 9 C-1.01 9.33 -0.02 9.66 1 10 C1.33 10.99 1.66 11.98 2 13 C1.01 14.485 1.01 14.485 0 16 C-0.66 16 -1.32 16 -2 16 C-1.67 14.35 -1.34 12.7 -1 11 C-1.99 11 -2.98 11 -4 11 C-4 9.02 -4 7.04 -4 5 C-3.01 4.67 -2.02 4.34 -1 4 C-0.26676204 1.98491642 -0.26676204 1.98491642 0 0 Z " fill="#565656" transform="translate(251,103)"/>
<path d="M0 0 C0 4.11537955 -2.20809098 5.8893316 -4.8125 8.8125 C-8.22081067 12.64867278 -10.7285544 16.382746 -13 21 C-15.1875 21.875 -15.1875 21.875 -17 22 C-14.03435154 16.35499092 -10.48841653 11.80859499 -6.25 7.0625 C-5.34701172 6.03672852 -5.34701172 6.03672852 -4.42578125 4.99023438 C-2.95584794 3.32197673 -1.48059551 1.65879164 0 0 Z " fill="#4B4B4B" transform="translate(105,112)"/>
<path d="M0 0 C1.98 0 3.96 0 6 0 C5.57742724 1.4835001 5.13643678 2.96176424 4.6875 4.4375 C4.44386719 5.26121094 4.20023438 6.08492188 3.94921875 6.93359375 C3.63597656 7.61550781 3.32273438 8.29742187 3 9 C2.01 9.33 1.02 9.66 0 10 C0 6.7 0 3.4 0 0 Z " fill="#C9C9C9" transform="translate(171,286)"/>
<path d="M0 0 C1.98 0 3.96 0 6 0 C6 3.3 6 6.6 6 10 C2.46413986 6.82679218 0.41421969 4.83256305 0 0 Z " fill="#C8C8C8" transform="translate(162,286)"/>
<path d="M0 0 C-0.66 2.64 -1.32 5.28 -2 8 C-4.31 8 -6.62 8 -9 8 C-7.47364599 4.11473526 -4.49771687 0 0 0 Z " fill="#C7C7C7" transform="translate(162,259)"/>
<path d="M0 0 C3.91841827 1.30613942 6.32640809 2.83129848 9 6 C9 6.66 9 7.32 9 8 C7.02 8 5.04 8 3 8 C0 2.25 0 2.25 0 0 Z " fill="#C9C9C9" transform="translate(177,259)"/>
<path d="M0 0 C2.475 0.495 2.475 0.495 5 1 C5 1.66 5 2.32 5 3 C5.66 3 6.32 3 7 3 C7 3.66 7 4.32 7 5 C7.5775 5.2475 8.155 5.495 8.75 5.75 C11.32939979 7.18299988 13.06121592 8.78424676 15 11 C15 11.66 15 12.32 15 13 C15.66 13 16.32 13 17 13 C16.67 13.99 16.34 14.98 16 16 C15.5153125 15.41992188 15.030625 14.83984375 14.53125 14.2421875 C10.51137477 9.55748675 6.54974424 5.6113614 1.46875 2.09375 C0.9840625 1.7328125 0.499375 1.371875 0 1 C0 0.67 0 0.34 0 0 Z " fill="#676FB2" transform="translate(335,189)"/>
<path d="M0 0 C0 0.99 0 1.98 0 3 C-4.05221312 6.93543465 -9.30128671 10 -15 10 C-15 9.34 -15 8.68 -15 8 C-10.05 5.36 -5.1 2.72 0 0 Z " fill="#CED3E8" transform="translate(345,301)"/>
<path d="M0 0 C3 1 3 1 4.6875 3.9375 C6 7 6 7 6 9 C4.02 9 2.04 9 0 9 C0 6.03 0 3.06 0 0 Z " fill="#D2D2D2" transform="translate(171,258)"/>
<path d="M0 0 C0.66 0 1.32 0 2 0 C0.60090802 4.45165631 -1.47407079 6.96606091 -5 10 C-7.8125 11.3125 -7.8125 11.3125 -10 12 C-10 11.01 -10 10.02 -10 9 C-8.01399663 7.6459068 -6.01182457 6.31542376 -4 5 C-2.64843325 3.34808509 -1.31037934 1.68477344 0 0 Z " fill="#5C5C5C" transform="translate(318,140)"/>
<path d="M0 0 C1.32 0.66 2.64 1.32 4 2 C3.67 2.99 3.34 3.98 3 5 C4.98 5 6.96 5 9 5 C9 5.33 9 5.66 9 6 C4.9472484 6.98248524 1.16138263 7.08159574 -3 7 C-2.67 5.68 -2.34 4.36 -2 3 C-1.34 3 -0.68 3 0 3 C0 2.01 0 1.02 0 0 Z " fill="#4B4B4D" transform="translate(275,441)"/>
<path d="M0 0 C0.66 0.33 1.32 0.66 2 1 C1.2575 1.70125 0.515 2.4025 -0.25 3.125 C-3.09535508 5.91588732 -3.09535508 5.91588732 -5.125 9.3125 C-6.053125 10.6428125 -6.053125 10.6428125 -7 12 C-7.99 12 -8.98 12 -10 12 C-8.62968895 6.34746692 -4.32310587 3.4886459 0 0 Z " fill="#5D5D5D" transform="translate(291,113)"/>
<path d="M0 0 C0.12375 0.969375 0.2475 1.93875 0.375 2.9375 C0.58125 3.948125 0.7875 4.95875 1 6 C1.66 6.33 2.32 6.66 3 7 C3 7.66 3 8.32 3 9 C-0.0831351 7.80100302 -3.06279492 6.52299523 -6 5 C-3.74193548 0 -3.74193548 0 0 0 Z " fill="#5B5B5B" transform="translate(345,75)"/>
<path d="M0 0 C0.66 0 1.32 0 2 0 C2 0.99 2 1.98 2 3 C4.31 3 6.62 3 9 3 C9 3.33 9 3.66 9 4 C7.02 4 5.04 4 3 4 C2.67 7.96 2.34 11.92 2 16 C1.67 16 1.34 16 1 16 C1 12.04 1 8.08 1 4 C0.01 3.67 -0.98 3.34 -2 3 C-1.34 3 -0.68 3 0 3 C0 2.01 0 1.02 0 0 Z " fill="#0D0D0D" transform="translate(177,265)"/>
<path d="M0 0 C0 2.97 0 5.94 0 9 C-1.65 9 -3.3 9 -5 9 C-4.38709677 3.48387097 -4.38709677 3.48387097 -2.5 1.125 C-1 0 -1 0 0 0 Z " fill="#D5D5D5" transform="translate(168,258)"/>
<path d="M0 0 C-0.7115625 0.61875 -0.7115625 0.61875 -1.4375 1.25 C-3.16266518 3.182185 -3.56584875 4.48192275 -4 7 C-6.4375 6.625 -6.4375 6.625 -9 6 C-9.33 5.34 -9.66 4.68 -10 4 C-9.01 4 -8.02 4 -7 4 C-7 3.01 -7 2.02 -7 1 C-3.375 -1.125 -3.375 -1.125 0 0 Z " fill="#676767" transform="translate(309,139)"/>
<path d="M0 0 C0.12375 0.61875 0.2475 1.2375 0.375 1.875 C0.87197356 4.19120832 0.87197356 4.19120832 3 6 C2.34 6.66 1.68 7.32 1 8 C0.34 7.67 -0.32 7.34 -1 7 C-1 7.66 -1 8.32 -1 9 C-2.65 9.66 -4.3 10.32 -6 11 C-4.54955729 6.89041233 -2.48889248 3.56741255 0 0 Z " fill="#4D4D4D" transform="translate(85,137)"/>
<path d="M0 0 C5.53846154 0.61538462 5.53846154 0.61538462 7.875 2.5625 C8.431875 3.2740625 8.431875 3.2740625 9 4 C6.69 3.67 4.38 3.34 2 3 C2 3.66 2 4.32 2 5 C-0.64 5 -3.28 5 -6 5 C-6 4.67 -6 4.34 -6 4 C-4.35 4 -2.7 4 -1 4 C-0.67 2.68 -0.34 1.36 0 0 Z " fill="#CBCBCB" transform="translate(303,114)"/>
<path d="M0 0 C0.66 0 1.32 0 2 0 C2.33 0.99 2.66 1.98 3 3 C4.98 2.67 6.96 2.34 9 2 C8.125 5.875 8.125 5.875 7 7 C4.5625 7.1875 4.5625 7.1875 2 7 C0 5 0 5 -0.125 2.375 C-0.08375 1.59125 -0.0425 0.8075 0 0 Z " fill="#5D5D5D" transform="translate(229,98)"/>
<path d="M0 0 C2.0625 0.4375 2.0625 0.4375 4 1 C2.515 3.475 2.515 3.475 1 6 C3.475 6.99 3.475 6.99 6 8 C6 8.33 6 8.66 6 9 C3.625 9.125 3.625 9.125 1 9 C-1 7 -1 7 -1.1875 3.9375 C-1 1 -1 1 0 0 Z " fill="#5C5C5C" transform="translate(297,128)"/>
<path d="M0 0 C1.22589844 0.15275391 1.22589844 0.15275391 2.4765625 0.30859375 C3.41628906 0.43427734 3.41628906 0.43427734 4.375 0.5625 C4.045 1.5525 3.715 2.5425 3.375 3.5625 C-0.255 3.8925 -3.885 4.2225 -7.625 4.5625 C-7.295 3.2425 -6.965 1.9225 -6.625 0.5625 C-4.10446405 -0.69776798 -2.7707902 -0.35624445 0 0 Z " fill="#313131" transform="translate(155.625,266.4375)"/>
<path d="M0 0 C0 0.99 0 1.98 0 3 C-1.75 4.60546875 -1.75 4.60546875 -4 6.1875 C-4.7425 6.71730469 -5.485 7.24710937 -6.25 7.79296875 C-6.8275 8.19128906 -7.405 8.58960938 -8 9 C-8 5.06368636 -6.57142871 3.87394974 -4 1 C-2 0 -2 0 0 0 Z " fill="#121212" transform="translate(159,258)"/>
<path d="M0 0 C0.66 0 1.32 0 2 0 C0.43181728 5.452999 -1.03810217 9.76486783 -5 14 C-4.67 12.02 -4.34 10.04 -4 8 C-3.34 8 -2.68 8 -2 8 C-2.04125 7.236875 -2.0825 6.47375 -2.125 5.6875 C-2 3 -2 3 0 0 Z " fill="#CAD0E2" transform="translate(357,258)"/>
<path d="M0 0 C2.64 0 5.28 0 8 0 C7.42655063 2.86724686 7.1385485 3.8614515 5 6 C5 5.01 5 4.02 5 3 C3.68 3.33 2.36 3.66 1 4 C0.67 2.68 0.34 1.36 0 0 Z " fill="#696969" transform="translate(230,86)"/>
<path d="M0 0 C0.268125 0.556875 0.53625 1.11375 0.8125 1.6875 C2.10122647 4.19712523 3.52926478 6.59334236 5 9 C1.76912579 8.44295272 -0.02361137 7.66812465 -2 5 C-2 3.68 -2 2.36 -2 1 C-1.34 0.67 -0.68 0.34 0 0 Z " fill="#606060" transform="translate(314,113)"/>
<path d="M0 0 C0.66 0 1.32 0 2 0 C2 0.99 2 1.98 2 3 C3.32 3 4.64 3 6 3 C6.33 2.01 6.66 1.02 7 0 C7.33 0 7.66 0 8 0 C8 1.65 8 3.3 8 5 C5.36 5 2.72 5 0 5 C0 3.35 0 1.7 0 0 Z " fill="#565656" transform="translate(230,108)"/>
<path d="M0 0 C0.66 0.33 1.32 0.66 2 1 C1.67 1.99 1.34 2.98 1 4 C0.34 4 -0.32 4 -1 4 C-1.33 4.99 -1.66 5.98 -2 7 C-5.0625 8.1875 -5.0625 8.1875 -8 9 C-6.90101298 5.70303895 -6.05402613 4.95329411 -3.4375 2.8125 C-2.79683594 2.28269531 -2.15617187 1.75289063 -1.49609375 1.20703125 C-0.75552734 0.60955078 -0.75552734 0.60955078 0 0 Z " fill="#4A4A4A" transform="translate(123,95)"/>
<path d="M0 0 C1.65 0 3.3 0 5 0 C4.67 0.99 4.34 1.98 4 3 C4.87483915 5.16715557 4.87483915 5.16715557 6 7 C5.01 7.33 4.02 7.66 3 8 C0 3.375 0 3.375 0 0 Z " fill="#0B0B0B" transform="translate(149,284)"/>
<path d="M0 0 C0.33 1.32 0.66 2.64 1 4 C0.01 4.33 -0.98 4.66 -2 5 C-3.22969878 8.51190809 -3.22969878 8.51190809 -4 12 C-4.33 11.34 -4.66 10.68 -5 10 C-5.66 9.67 -6.32 9.34 -7 9 C-4.69 6.03 -2.38 3.06 0 0 Z " fill="#6C75B7" transform="translate(354,269)"/>
<path d="M0 0 C0.66 1.32 1.32 2.64 2 4 C2.99 4 3.98 4 5 4 C5.33 4.99 5.66 5.98 6 7 C4.25 7.6875 4.25 7.6875 2 8 C-0.25 6.5625 -0.25 6.5625 -2 5 C-1 2 -1 2 0 0 Z " fill="#676767" transform="translate(304,119)"/>
<path d="M0 0 C-0.66 1.32 -1.32 2.64 -2 4 C-3.98 4 -5.96 4 -8 4 C-8 3.01 -8 2.02 -8 1 C-5.07175348 0.02391783 -3.04386724 -0.08226668 0 0 Z " fill="#656565" transform="translate(259,117)"/>
<path d="M0 0 C4.19162145 0.95264124 5.7207791 1.63260408 8.375 5.125 C8.91125 6.07375 9.4475 7.0225 10 8 C9.01 8 8.02 8 7 8 C6.67 7.01 6.34 6.02 6 5 C4.67532254 4.3162955 3.34136367 3.65035814 2 3 C1.34 2.01 0.68 1.02 0 0 Z " fill="#C4CBE1" transform="translate(350,181)"/>
<path d="M0 0 C2.31 0 4.62 0 7 0 C6.67 0.99 6.34 1.98 6 3 C4.68 2.67 3.36 2.34 2 2 C2 3.32 2 4.64 2 6 C1.01 6 0.02 6 -1 6 C-0.67 4.02 -0.34 2.04 0 0 Z " fill="#555555" transform="translate(297,119)"/>
<path d="M0 0 C1.875 0.3125 1.875 0.3125 4 1 C4.66 1.99 5.32 2.98 6 4 C4.02 4.99 4.02 4.99 2 6 C1.01 5.01 0.02 4.02 -1 3 C-0.67 2.01 -0.34 1.02 0 0 Z " fill="#5B5B5B" transform="translate(103,377)"/>
<path d="M0 0 C1.42944945 2.35438733 2.08661261 3.48032433 1.625 6.25 C1.41875 6.8275 1.2125 7.405 1 8 C0.34 8 -0.32 8 -1 8 C-1 8.66 -1 9.32 -1 10 C-1.99 10.33 -2.98 10.66 -4 11 C-2.7874262 7.27566618 -1.49140021 3.62197194 0 0 Z " fill="#D0D0D0" transform="translate(77,164)"/>
<path d="M0 0 C0.33 0 0.66 0 1 0 C1 1.98 1 3.96 1 6 C1.66 6 2.32 6 3 6 C2.67 7.65 2.34 9.3 2 11 C1.01 11 0.02 11 -1 11 C-0.67 7.37 -0.34 3.74 0 0 Z " fill="#717171" transform="translate(319,129)"/>
<path d="M0 0 C0.66 1.32 1.32 2.64 2 4 C1.01 5.485 1.01 5.485 0 7 C-0.66 7 -1.32 7 -2 7 C-2 5.02 -2 3.04 -2 1 C-1.34 0.67 -0.68 0.34 0 0 Z " fill="#D2D2D2" transform="translate(173,289)"/>
<path d="M0 0 C1.41493551 -0.10884119 2.83232943 -0.18597617 4.25 -0.25 C5.03890625 -0.29640625 5.8278125 -0.3428125 6.640625 -0.390625 C9 0 9 0 13 4 C8.71 3.01 4.42 2.02 0 1 C0 0.67 0 0.34 0 0 Z " fill="#C5CAE3" transform="translate(318,166)"/>
<path d="M0 0 C1.98 0.495 1.98 0.495 4 1 C3.67 2.32 3.34 3.64 3 5 C1.68 4.67 0.36 4.34 -1 4 C-0.67 2.68 -0.34 1.36 0 0 Z " fill="#CBCBCB" transform="translate(299,130)"/>
<path d="M0 0 C1.485 0.99 1.485 0.99 3 2 C3.3125 5 3.3125 5 3 8 C2.34 8.66 1.68 9.32 1 10 C0.63720544 8.71073008 0.28503302 7.41846728 -0.0625 6.125 C-0.35833984 5.04605469 -0.35833984 5.04605469 -0.66015625 3.9453125 C-1 2 -1 2 0 0 Z " fill="#5F5F5F" transform="translate(308,78)"/>
<path d="M0 0 C1.46795245 3.81667636 0.59626457 6.32859149 -1 10 C-1.99 10.66 -2.98 11.32 -4 12 C-2.66666667 8 -1.33333333 4 0 0 Z " fill="#6A72B2" transform="translate(359,257)"/>
<path d="M0 0 C2.95183101 2.95183101 3.08663988 5.95511947 4 10 C1.25545805 8.62772902 0.26717054 6.80151161 -0.6875 3.9375 C-1 2 -1 2 0 0 Z " fill="#7077B9" transform="translate(371,210)"/>
<path d="M0 0 C0.33 0.99 0.66 1.98 1 3 C1.99 3 2.98 3 4 3 C4 4.65 4 6.3 4 8 C3.34 8 2.68 8 2 8 C2 7.01 2 6.02 2 5 C1.01 4.67 0.02 4.34 -1 4 C-0.67 2.68 -0.34 1.36 0 0 Z " fill="#575757" transform="translate(263,107)"/>
<path d="M0 0 C0.33 0.66 0.66 1.32 1 2 C1.99 2.33 2.98 2.66 4 3 C3.01 3 2.02 3 1 3 C1 4.98 1 6.96 1 9 C0.01 8.01 -0.98 7.02 -2 6 C-1.34 4.02 -0.68 2.04 0 0 Z " fill="#C2C2C2" transform="translate(246,105)"/>
<path d="M0 0 C4.75 1.875 4.75 1.875 7 3 C6.67 3.99 6.34 4.98 6 6 C5.01 5.67 4.02 5.34 3 5 C3 4.34 3 3.68 3 3 C2.01 2.67 1.02 2.34 0 2 C0 1.34 0 0.68 0 0 Z " fill="#CFCFCF" transform="translate(249,391)"/>
<path d="M0 0 C2.97 0 5.94 0 9 0 C7.515 1.98 7.515 1.98 6 4 C3.53199953 2.84826645 1.95216435 1.95216435 0 0 Z " fill="#C0C0C0" transform="translate(165,299)"/>
<path d="M0 0 C0.99 0.33 1.98 0.66 3 1 C3 1.99 3 2.98 3 4 C2.34 4 1.68 4 1 4 C1 6.31 1 8.62 1 11 C0.67 11 0.34 11 0 11 C0 7.37 0 3.74 0 0 Z " fill="#3B3B3B" transform="translate(189,270)"/>
<path d="M0 0 C1.32 0 2.64 0 4 0 C4.66 1.98 5.32 3.96 6 6 C4.68 6 3.36 6 2 6 C1.34 4.02 0.68 2.04 0 0 Z " fill="#565656" transform="translate(295,140)"/>
<path d="M0 0 C0.33 0 0.66 0 1 0 C1.1875 2.875 1.1875 2.875 1 6 C0.01 6.66 -0.98 7.32 -2 8 C-2.125 5.125 -2.125 5.125 -2 2 C-1.34 1.34 -0.68 0.68 0 0 Z " fill="#D6D6D6" transform="translate(228,97)"/>
<path d="M0 0 C1.32 0 2.64 0 4 0 C4 1.32 4 2.64 4 4 C2.35 3.67 0.7 3.34 -1 3 C-0.67 2.01 -0.34 1.02 0 0 Z " fill="#CFCFCF" transform="translate(232,98)"/>
<path d="M0 0 C1.32 0.66 2.64 1.32 4 2 C4 2.66 4 3.32 4 4 C2.02 4 0.04 4 -2 4 C-2 3.34 -2 2.68 -2 2 C-1.34 2 -0.68 2 0 2 C0 1.34 0 0.68 0 0 Z " fill="#D6D6D6" transform="translate(182,263)"/>
<path d="M0 0 C0.33 1.32 0.66 2.64 1 4 C-1.31 4 -3.62 4 -6 4 C-2.25 0 -2.25 0 0 0 Z " fill="#D6D6D6" transform="translate(159,263)"/>
<path d="M0 0 C2.475 0.495 2.475 0.495 5 1 C5 1.66 5 2.32 5 3 C5.66 3 6.32 3 7 3 C6.67 3.99 6.34 4.98 6 6 C3.97945196 4.35830472 1.97956942 2.69088222 0 1 C0 0.67 0 0.34 0 0 Z " fill="#7079B5" transform="translate(335,189)"/>
<path d="M0 0 C2.3125 -0.25 2.3125 -0.25 5 0 C6.8125 2 6.8125 2 8 4 C7.01 4.495 7.01 4.495 6 5 C3.98079663 3.69593116 1.98075027 2.36176581 0 1 C0 0.67 0 0.34 0 0 Z " fill="#C9D0E5" transform="translate(335,171)"/>
<path d="M0 0 C0.66 1.32 1.32 2.64 2 4 C0.68 4.33 -0.64 4.66 -2 5 C-2.33 3.68 -2.66 2.36 -3 1 C-2.01 0.67 -1.02 0.34 0 0 Z " fill="#5C5C5C" transform="translate(425,162)"/>
<path d="M0 0 C1.66666667 0 3.33333333 0 5 0 C5 1.32 5 2.64 5 4 C3.68 4.33 2.36 4.66 1 5 C0.67 3.35 0.34 1.7 0 0 Z " fill="#8E8E8E" transform="translate(253,110)"/>
</svg>
